<svg width="24" height="22" viewBox="0 0 24 22" xmlns="http://www.w3.org/2000/svg">
    <path d="M23.846 3.647a1.003 1.003 0 0 0-.976-.766H18.67c.01-.519.004-.988-.007-1.376A1.324 1.324 0 0 0 17.331.213H6.677c-.725 0-1.313.568-1.334 1.292-.045.388-.016.857-.004 1.376H1.136c-.462 0-.864.316-.973.766-.034.142-.818 3.535 1.382 6.816 1.56 2.326 4.193 3.96 7.815 4.893.78.2 1.31.92 1.31 1.724a1.81 1.81 0 0 1-1.809 1.807H8.67a2 2 0 0 0-2 2c0 .368.298.667.629.667h9.299c.368 0 .63-.299.63-.667a2 2 0 0 0-2.001-2h-.194a1.812 1.812 0 0 1-1.807-1.807c0-.805.53-1.525 1.31-1.725 3.624-.93 6.256-2.565 7.814-4.893 2.313-3.28 1.529-6.673 1.496-6.815zM3.226 9.375C2.062 7.658 1.96 5.869 2.016 4.882h3.351c.224 2.485.848 5.464 2.404 7.882-2.044-.813-3.565-1.947-4.545-3.39zm17.556 0c-.977 1.442-2.498 2.574-4.543 3.385 1.555-2.414 2.18-5.394 2.4-7.878h3.351c.022.987-.045 2.78-1.208 4.493z" fill="#00B091" fill-rule="nonzero"/>
</svg>
