<svg width="80" height="80" viewBox="0 0 80 80" xmlns="http://www.w3.org/2000/svg">
    <g fill="none" fill-rule="evenodd">
        <circle fill="#00B091" cx="40" cy="40" r="40"/>
        <path d="M42.587 23.059a3.003 3.003 0 0 1 2.357 3.531l-.144.712a14.9 14.9 0 0 1-1.8 4.7h9a3 3 0 0 1 .231 5.994 3 3 0 0 1-1.663 4.95c.276.45.432.988.432 1.556a2.996 2.996 0 0 1-2.069 2.85A3 3 0 0 1 46 51.002h-4.594a6.012 6.012 0 0 1-3.331-1.006l-2.406-1.606A6 6 0 0 1 33 43.396v-6.95c0-1.825.831-3.544 2.25-4.687l.462-.369a8.979 8.979 0 0 0 3.2-5.263l.144-.712a3.003 3.003 0 0 1 3.532-2.356zM25 33.002h4c1.106 0 2 .894 2 2v14c0 1.107-.894 2-2 2h-4c-1.106 0-2-.893-2-2v-14c0-1.106.894-2 2-2z" fill="#FFF" fill-rule="nonzero"/>
    </g>
</svg>
