<svg width="22" height="26" viewBox="0 0 22 26" xmlns="http://www.w3.org/2000/svg">
    <path d="M5.5 5.786c0-3.038 2.46-5.5 5.5-5.5s5.5 2.462 5.5 5.5v2.357h3.143A2.358 2.358 0 0 1 22 10.5v10.214a4.716 4.716 0 0 1-4.714 4.715H4.714A4.715 4.715 0 0 1 0 20.714V10.5a2.357 2.357 0 0 1 2.357-2.357H5.5V5.786zm2.357 2.357h6.286V5.786A3.144 3.144 0 0 0 11 2.643a3.144 3.144 0 0 0-3.143 3.143v2.357zM6.68 12.857c.653 0 1.178-.525 1.178-1.178 0-.654-.525-1.179-1.178-1.179-.654 0-1.179.525-1.179 1.179 0 .653.525 1.178 1.179 1.178zM15.32 10.5c-.653 0-1.178.525-1.178 1.179 0 .653.525 1.178 1.178 1.178.654 0 1.179-.525 1.179-1.178 0-.654-.525-1.179-1.179-1.179z" fill="#00B091" fill-rule="nonzero"/>
</svg>
