<svg width="151" height="143" viewBox="0 0 151 143" xmlns="http://www.w3.org/2000/svg" xmlns:xlink="http://www.w3.org/1999/xlink">
    <defs>
        <path id="18g0910swa" d="M0 0h144.288v115.271H0z"/>
        <path id="kah94pgpmc" d="M0 143h150V0H0z"/>
    </defs>
    <g transform="matrix(-1 0 0 1 150 0)" fill="none" fill-rule="evenodd">
        <g transform="translate(5.712)">
            <mask id="b4raahfigb" fill="#fff">
                <use xlink:href="#18g0910swa"/>
            </mask>
            <path d="M.465 66.17c-2.11-17.438 1.738-56.037 37.42-64.335 46.506-10.815 45.844 29.84 69.143 26.59 0 0 32.157-.586 36.935 36.641 4.778 37.228-43.873 54.363-93.407 49.352C27.51 112.086 3.584 91.94.466 66.17" fill="#F4C643" mask="url(#b4raahfigb)"/>
        </g>
        <path d="M136.5 141.37c0 .9-6.904 1.63-15.422 1.63-8.519 0-15.424-.73-15.424-1.63 0-.9 6.905-1.629 15.424-1.629 8.518 0 15.423.73 15.423 1.63" fill="#F4C543"/>
        <path d="M101.265 139.687c.044 1.633-11.971 2.956-26.838 2.956s-26.955-1.323-27-2.956c-.045-1.633 11.971-2.956 26.838-2.956s26.955 1.323 27 2.956" fill="#F3C643"/>
        <path fill="#66DDBA" d="m60.172 59.195 8.738 12.267 9.644-5.57-6.338-13.654z"/>
        <path d="M78.157 68.451c-1.316 2.063-4.364 3.836-6.808 3.96-2.443.125-3.358-1.446-2.042-3.508 1.315-2.062 4.363-3.835 6.807-3.96s3.358 1.446 2.043 3.508" fill="#41937C"/>
        <path d="M71.836 55.495c-1.666 2.61-5.524 4.855-8.618 5.013-3.094.158-4.251-1.83-2.586-4.441 1.666-2.611 5.524-4.855 8.618-5.013 3.094-.158 4.251 1.83 2.586 4.44" fill="#FF808A"/>
        <path d="M72.36 72.275c2.22-.47 4.658-2.038 5.797-3.823.653-1.024.756-1.925.397-2.56L72.216 52.24l-1.597.922c6.372 11.817 4.328 16.394 1.741 19.114" fill="#42947D"/>
        <path d="M70.94 51.011a5.48 5.48 0 0 0-1.535-.118c-3.234.165-7.267 2.51-9.008 5.24a5.695 5.695 0 0 0-.602 1.223l-.889.505 1.054 1.81.007-.002c.525.759 1.602 1.184 3.133 1.106 3.234-.165 7.267-2.511 9.008-5.24.863-1.354 1-2.547.525-3.386l-.919-1.579-.774.441z" fill="#C6D1C8"/>
        <path d="m71.714 50.57-.774.441a4.84 4.84 0 0 0-.847-.117c1.681 4.557-.211 7.011-.283 7.101.935-.74 1.736-1.58 2.298-2.46.863-1.354 1-2.547.525-3.386l-.919-1.579z" fill="#BAC4BC"/>
        <path d="M71.162 53.912c-1.74 2.729-5.774 5.075-9.007 5.24-3.234.165-4.444-1.913-2.703-4.642 1.74-2.73 5.774-5.075 9.008-5.24 3.233-.165 4.443 1.913 2.702 4.642" fill="#E7F5E9"/>
        <path d="M70.895 50.269c2.53 4.343-9.621 10.658-11.813 6.822-1.865-3.263-.781-7.409 2.48-9.293 3.263-1.884 7.441-.778 9.333 2.47" fill="#FFF"/>
        <path d="M63.933 48.101c.195.335-.349 1.011-1.214 1.511-.866.5-1.725.634-1.92.3-.195-.335.349-1.01 1.214-1.51.866-.5 1.725-.635 1.92-.3" fill="#9B9A9E"/>
        <path d="m83.648 27.546 11.301 9.307c.366-.317-9.387 8.256-9.387 8.256-2.497 2.41-10.235-4.478-8.457-6.553l6.543-11.01z" fill="#FFF"/>
        <path d="M95.087 36.724c-.803.98-4.004-.295-7.148-2.849-3.145-2.554-5.043-5.42-4.24-6.4.802-.98 4.002.295 7.147 2.85 3.145 2.553 5.044 5.418 4.24 6.4" fill="#E9F5EB"/>
        <path d="M84.204 29.097c.675 1.283 2.112 2.928 4 4.462 2.192 1.78 4.41 2.937 5.825 3.145-.674-1.283-2.112-2.928-4-4.462-2.192-1.78-4.41-2.937-5.825-3.145" fill="#C6D1C8"/>
        <path d="M78.5 16.027c-.006-.007-.016-.01-.023-.017l.002-.003-1.835-1.67-4.921 5.366 1.835 1.67.003-.003.018.022c.537.488 2.386-.033 3.745-1.514 1.36-1.482 1.713-3.363 1.177-3.851" fill="#1C4852"/>
        <path d="M76.644 14.338c.688.625.143 2.333-1.216 3.815-1.359 1.481-3.018 2.175-3.705 1.55-.688-.625-.143-2.334 1.215-3.815 1.36-1.482 3.019-2.176 3.706-1.55" fill="#42947C"/>
        <path stroke="#42947C" stroke-width=".5" d="m73.783 19.95 1.331 1.21M74.986 19.065l1.177 1.071M76.022 18.028l1.177 1.071M77.049 16.581l1.178 1.071"/>
        <path fill="#C6D1C8" d="m68.754 33.352-11.763-7.214.415-.671 11.763 7.214z"/>
        <path d="M58.447 26.652c-.302.489-1.28.435-2.186-.12-.905-.555-1.394-1.401-1.092-1.89.302-.489 1.281-.435 2.186.12.905.556 1.394 1.402 1.092 1.89M70.425 33.998c-.302.489-1.28.435-2.186-.12-.905-.555-1.394-1.401-1.092-1.89.303-.489 1.281-.435 2.186.12.906.556 1.394 1.402 1.092 1.89" fill="#FFF"/>
        <path fill="#C6D1C8" d="m98.224 52.662-11.846 7.08-.407-.676 11.845-7.08z"/>
        <path d="M87.507 58.69c.297.493-.202 1.333-1.114 1.878-.911.545-1.89.587-2.187.095-.296-.492.202-1.332 1.114-1.877.911-.545 1.89-.587 2.187-.095M99.569 51.482c.296.492-.202 1.333-1.114 1.877-.911.545-1.89.588-2.187.096-.297-.492.202-1.333 1.114-1.878.91-.544 1.89-.587 2.187-.095" fill="#FFF"/>
        <path d="M3.77 85.863c0 .97-.79 1.757-1.763 1.757a1.76 1.76 0 0 1-1.764-1.757c0-.97.79-1.756 1.764-1.756a1.76 1.76 0 0 1 1.764 1.756zM35.55 21.588c0 .97-.79 1.756-1.764 1.756a1.76 1.76 0 0 1-1.764-1.756c0-.97.79-1.757 1.764-1.757a1.76 1.76 0 0 1 1.764 1.757zM138.248 67.725c0 .97-.79 1.757-1.764 1.757a1.76 1.76 0 0 1-1.764-1.757c0-.97.79-1.757 1.764-1.757a1.76 1.76 0 0 1 1.764 1.757z" stroke="#1C4852" stroke-width=".5"/>
        <path d="M43.475 30.745c-.02-.859.9-.834 1.23-.435l6.342 23.752-1.425.676-6.147-23.993z" fill="#FFF"/>
        <path d="M49.623 54.739c-.088-.177.156-.478.547-.671.39-.194.779-.208.867-.031.089.177-.156.478-.546.672-.39.193-.78.207-.868.03" fill="#264F17"/>
        <path d="M40.06 84.814c.77 1.185 2.085 1.724 3.558 1l6.325-4.92-1.446-.836-5.29 2.89-3.147 1.866z" fill="#D46D4E"/>
        <path d="m48.478 80.06 1.46-.079c.292-.016.58.073.811.25l.938.719c.327.25.302.75-.049.966l-1.84-.004c-.406 0-.824-.163-1.169-.454l-.575-.485.424-.912z" fill="#D46D4E"/>
        <path fill="#FFF" d="m41.217 63.782-13.256-4.226-4.357 13.555 12.878 4.103z"/>
        <path d="M21.259 70.19c-.787-3.162.602-7.454 3.101-9.587 2.5-2.133 5.163-1.298 5.95 1.863.786 3.162-.603 7.454-3.102 9.587-2.5 2.133-5.163 1.298-5.95-1.863M34.25 74.331c-.786-3.162.603-7.454 3.103-9.586 2.5-2.133 5.163-1.299 5.949 1.863.786 3.162-.602 7.454-3.102 9.587-2.499 2.132-5.163 1.298-5.95-1.864M54.563 68.036l-7.97-2.54-4.357 13.554 7.742 2.467z" fill="#FFF"/>
        <path d="M39.89 76.129c-.786-3.162.602-7.454 3.102-9.587 2.5-2.132 5.163-1.298 5.95 1.863.786 3.162-.603 7.454-3.102 9.587-2.5 2.133-5.163 1.299-5.95-1.863" fill="#FFF"/>
        <path d="M47.585 78.581c-.787-3.161.602-7.453 3.101-9.586 2.5-2.133 5.164-1.298 5.95 1.863.786 3.162-.602 7.454-3.102 9.587s-5.163 1.298-5.95-1.864" fill="#FFF"/>
        <path d="M23.587 71.41c-1.01-.323-1.074-2.932-.143-5.828.93-2.896 2.504-4.984 3.514-4.662 1.01.322 1.073 2.931.142 5.828-.93 2.896-2.504 4.983-3.513 4.661" fill="#DAE6DC"/>
        <path d="M53.534 80.445c1.983-1.766 2.82-1.862 4.91-1.45l1.314-4.086s-2.619-.873-3.008-3.494l-3.216 9.03z" fill="#FFF"/>
        <path fill="#264F17" d="m58.285 79.967 1.85-5.757 1.97.628-1.85 5.757z"/>
        <path d="M58.262 79.96c-.575-.184-.963-1.728-.452-3.318.51-1.59 1.727-2.623 2.303-2.44.575.184.628 1.621.117 3.211-.511 1.59-1.392 2.73-1.968 2.547" fill="#1C4852"/>
        <path d="M60.255 80.595c-.738-.235-.922-1.715-.41-3.305.51-1.59 1.522-2.688 2.26-2.452.738.235.921 1.714.41 3.304-.51 1.59-1.523 2.688-2.26 2.453" fill="#42947C"/>
        <path stroke="#41947C" stroke-width=".5" d="m60.461 75.363-1.263-.402M59.86 76.448l-1.263-.402M59.439 77.59l-1.264-.402M59.166 79.039l-1.263-.403"/>
        <path d="M56.215 72.105s-.77-2.541-2.267-3.104c-1.21-.456-3.532-1.557-3.887-1.17-.355.389-.78 1.054.721 1.465 1.5.41 3.514.791 4.373 3.502.498 1.571 1.475.56 1.06-.693" fill="#FFF"/>
        <path d="M43.231 66.347s-4.22 4.302-3.25 10.11M38.295 63.08s-5.27 4.547-4.222 13.138M33.374 61.512s-5.27 4.546-4.222 13.137M53.051 67.785s-5.27 4.546-4.222 13.136M48.13 66.216s-5.27 4.546-4.222 13.137" stroke="#9E9E9C" stroke-width=".5" stroke-linecap="round" stroke-linejoin="round"/>
        <path d="M25.94 82.844c1.415.059 2.617-.699 2.875-2.314l-.374-6.907-1.53-.385-.684 5.97-.287 3.636z" fill="#D46D4E"/>
        <path d="m27.513 74.018-1.138-.914a1.214 1.214 0 0 1-.435-.727l-.214-1.159a.589.589 0 0 1 .685-.684l1.366 1.228c.3.272.502.67.563 1.117l.1.744-.927.395z" fill="#D46D4E"/>
        <path d="m46.164 80.747 1.639 2.508s-4.509 2.816-5.256 3.381c-.514.39-1.492 1.133-2.744 1.454-1.252.322-6.745 2.891-6.745 2.891s-3.101-1.2-1.595-3.936c.783-1.42 4.046-1.953 6.157-2.152a8.303 8.303 0 0 0 3.628-1.228l4.916-2.918z" fill="#42947C"/>
        <path d="M37.305 140.918c0 .527-5.767.955-12.88.955-7.114 0-12.88-.428-12.88-.955 0-.528 5.766-.956 12.88-.956 7.113 0 12.88.428 12.88.956" fill="#F5C443"/>
        <path d="M29.105 137.52s-1.743-11.606.508-16.199l-1.229-15.745 7.37.506-4.967 31.53-1.682-.092z" fill="#E3633D"/>
        <path d="m30.834 137.318.494 2.076c.057.382.208.382.208.382l.83.366c.181.06.217.278.168.455-.013.047-1.042 0-1.228.002l-1.048-.064-1.647-2.215s-.921-1.079.333-2.028c.402.848 1.354 1.304 1.89 1.026" fill="#4A2A1A"/>
        <path d="m36.266 108.543-1.705 13.334-2.243 13.367h-5.392s.503-2.324.444-3.062c-.06-.737-.256-7.732 1.388-10.95l-.13-13.106 7.638.417z" fill="#66DEBB"/>
        <path d="m28.72 121.232-.13-13.106 2.56.14.095 9.597c.017 1.789-.229 3.585-.671 5.352-.875 3.492-.733 8.359-.684 8.968.06.737-.444 3.061-.444 3.061h-2.558s.503-2.324.444-3.061c-.06-.738-.256-7.733 1.388-10.951" fill="#42937D"/>
        <path d="m21.518 122.995-8.247 11.734c-1.37.32-1.364-.451-.85-1.625 2.175-5.1 1.871-8.403 6.8-12.602l2.297 2.493z" fill="#E3633D"/>
        <path d="m29.822 108.516-5.528 12.577c-.236.593-.71 1.428-1.069 1.957l-7.781 10.615-3.165-2.338c1.487-5.339 2.821-7.84 7.155-12.645l2.93-12.437 3.447.542 4.011 1.73z" fill="#66DEBB"/>
        <path d="m13.34 134.704-.159 1.795c-.077.38.293 1.982.293 1.982-.2.302-.504.13-.675-.07l-2.303-4.001s-.36-1.027 1.894-1.275c.116.91.288 1.71.95 1.569" fill="#4A2A1A"/>
        <path d="m25.21 97.773 10.072.764c1.638.599.984 10.006.984 10.006l-6.623.305c-3.077-.064-6.716 2.34-7.099-2.766-.437-5.836 2.666-8.309 2.666-8.309" fill="#66DEBB"/>
        <path d="M22.452 106.688s6.684.716 8.858-2.206l-8.808-2.162s-.185 3.622-.05 4.368" fill="#1D4752"/>
        <path d="m33.956 86.202-3.64-.788-1.013-.06-3.967.959a2.82 2.82 0 0 0-1.741 3.35l.509 4.464c-.664 5.005-1.676 6.033-2.225 8.875 5.242 2.542 12.73 3.173 14.69.855.38-6.823-.394-13.024-2.613-17.655" fill="#43947C"/>
        <path d="m31.623 83.346-.17 2.67a.884.884 0 0 1-1.394.673l-.25-.177a1.15 1.15 0 0 1-.47-1.13l.532-3.155 1.752 1.12z" fill="#D46D4E"/>
        <path fill="#873B24" d="m31.639 84.145-.123.872-.78-.81z"/>
        <path d="M32.301 85.854s.914 3.09-1.149 3.022c-2.062-.07-2.88-3.27-2.88-3.27l1.562-.516 2.467.764zM29.642 81.791a.776.776 0 0 1 .621-.902l1.459-.265c.419-.077.756.22.895.625.165.478.273 1.513.26 2.273-.007.429-.263.87-.682.946-.447.081-1.865-.103-2.138-.885-.209-.595-.304-1.17-.415-1.792" fill="#D46D4E"/>
        <path d="M27.35 82.745s1.141-1.34 1.769-1.97c.843-.848 1.992-1.326 3.275-.29 0 0-.761 1.69-3.696 3.107l-1.347-.847z" fill="#753923"/>
        <path d="M29.178 81.524s-3.89 1.572-2.032 3.784c1.857 2.213 5.048 5.994 4.23 8.06 0 0 1.863-.91 1.238-2.789-.624-1.88-2.738-5.021-2.93-5.564-.577-1.63 1.643-3.644 1.643-3.644l-1.82-.27-.33.423z" fill="#753923"/>
        <path d="M29.477 83.552c.176.304.522.432.772.286.25-.147.31-.513.134-.818-.176-.304-.521-.432-.772-.285-.25.147-.31.513-.134.817" fill="#D46D4E"/>
        <path fill="#42947C" d="m26.868 91.985 1.971-8.484-.021-8.623-2.8-.613-.615 8.804-1.801 5.517z"/>
        <path d="M89.503 126.876c.1-1.661 1.396-3.021 2.881-3.021.223 0 .435.034.639.091l2.5-37.12-43.606.79 2.132 36.252c.072-.007.145-.013.22-.013 1.485 0 2.781 1.36 2.88 3.021l.715 11.936c.176.027.355.046.538.046H88.608c.06 0 .12-.007.179-.01l.716-11.972z" fill="#EBA63B"/>
        <path d="M115.168 80.581c-1.55.324-3.013-.291-3.594-2.024l-1.05-8.868 1.802.486 1.855 6.453.987 3.953z" fill="#C95836"/>
        <path d="m112.326 70.175-.736-1.452a1.362 1.362 0 0 0-.696-.642l-1.221-.504a.66.66 0 0 0-.912.586l1.03 1.772c.226.391.617.703 1.092.874l.793.283.65-.917z" fill="#C95836"/>
        <path d="M119.393 88.636c-2.29-.394-7.46-7.375-7.635-8.338-.198-1.085-1.569-7.348-1.569-7.348l3.435-.42s1.929 5.223 2.359 5.632c.43.409 3.882 4.614 3.882 4.614l-.472 5.86z" fill="#FFF"/>
        <path d="m112.064 68.182 3.29-6.977-2.504-3.26s-5.807 1.273-7.73 1.693a4.304 4.304 0 0 0-2.008.84l-1.532 1.566a56.694 56.694 0 0 1-12.577 9.682l-2.574 1.458c-3.36 2.56 4.125 12.306 7.486 9.746l2.55-2.487c3.24-3.158 6.702-6.107 10.602-8.41l3.384-2c.707-.538 1.347-1.065 1.613-1.85" fill="#C6D1C8"/>
        <path fill="#1C4852" d="m115.806 61.794-3.303-4.301 2.492-1.899 3.304 4.302z"/>
        <path d="M115.893 61.728c-.43.328-1.77-.179-2.681-1.367-.913-1.187-1.053-2.607-.623-2.934.43-.328 1.519.37 2.43 1.557.913 1.188 1.304 2.417.874 2.744" fill="#1C4852"/>
        <path d="M118.299 59.896c-.551.42-1.738-.203-2.65-1.391-.912-1.188-1.205-2.491-.654-2.91.551-.42 1.738.202 2.65 1.39.912 1.187 1.205 2.49.654 2.91" fill="#41937C"/>
        <path d="M92.81 81.265c-.865.658-2.659-.23-4.007-1.986-1.349-1.756-1.74-3.712-.876-4.37.864-.66 2.658.23 4.006 1.985 1.348 1.756 1.74 3.712.876 4.37" fill="#B0BAB2"/>
        <path d="M100.805 62.82s-1.045 1.435 1.431 5.034c2.477 3.598 4.83 4.179 4.83 4.179s-4.463 2.914-6.25 4.461c0 0-6.082-2.687-6.06-8.55l6.05-5.124z" fill="#EF8532"/>
        <path stroke="#41947C" stroke-width=".5" d="m114.359 57.069-1.598 1.218"/>
        <path d="M109.109 59.632s-3.937.564-4.926 1.41c-.989.847-2.825 2.116-2.708 2.632.118.516.426 1.247 1.63.249 1.204-.999 2.606-2.211 4.152-2.376 2.624-.279 3.26-1.941 1.852-1.915" fill="#FFF"/>
        <path stroke="#41947C" stroke-width=".5" d="m114.835 58.436-1.599 1.217M115.854 59.461l-1.599 1.218M117.143 60.118l-1.599 1.218"/>
        <path d="M108.286 97.164s4.654 3.124 5.032 9.593l-.03 3.254" stroke="#2D4973" stroke-width=".5" stroke-linecap="round"/>
        <path d="M116.76 140.248s1.947-12.965-.567-18.095l1.373-17.588-8.232.565 5.066 35.246 2.36-.128z" fill="#E3633D"/>
        <path d="M102.946 85.33c-1.203 1.024-2.784 1.184-4.13-.059l-5.192-7.279 1.816-.435 4.736 4.776 2.77 2.998z" fill="#C95836"/>
        <path d="m95.44 77.557-1.345-.922a1.369 1.369 0 0 0-.92-.231l-1.314.141a.657.657 0 0 0-.518.95l1.757 1.063c.387.235.88.322 1.38.244l.831-.13.129-1.115zM111.16 80.193l.888 2.864c.107.346.427.607.835.682.408.076.843-.044 1.136-.316l.279-.257c.403-.372.529-.9.325-1.356l-1.478-3.299-1.984 1.682z" fill="#C95836"/>
        <path fill="#873B24" d="m111.34 81.068.376.917.808-1.087z"/>
        <path d="M113.68 78.055a.867.867 0 0 0-.705-1l-1.632-.28c-.47-.08-.842.256-.993.71-.179.536-.287 1.693-.264 2.542.014.479.306.968.775 1.048.5.086 2.08-.137 2.377-1.014.226-.667.325-1.31.442-2.006" fill="#C95836"/>
        <path d="M113.163 80.549c1.329-.31 2.069-1.755 1.501-2.99-.123-.268-.26-.497-.412-.646-.952-.936-2.24-1.457-3.663-.284 0 0 .213 2.141 2.571 3.92h.003z" fill="#663A24"/>
        <path d="M112.443 79.537c-.193.342-.577.49-.858.328-.282-.16-.353-.568-.16-.91.193-.343.577-.49.858-.329.282.162.353.57.16.911" fill="#C95836"/>
        <path d="m122.845 123.823 7.62 14.084c1.48.534 2.24-.789 1.822-2.157-1.748-5.94-1.647-9.1-6.568-14.396l-2.874 2.47z" fill="#E3633D"/>
        <path d="m115.519 106.686 4.494 14.668c.185.689.602 1.677.931 2.31l7.25 12.783 3.815-2.185c-.953-6.116-2.258-9.002-5.72-15.281l-2.2-13.851-3.894.155-4.676 1.401z" fill="#42947C"/>
        <path d="m117.827 105.995 4.383 14.304c.184.688.602 1.677.931 2.31l7.163 12.63-2.11 1.208-7.25-12.784c-.329-.632-.746-1.62-.931-2.309l-4.494-14.668 2.308-.691z" fill="#1C4851"/>
        <path d="m130.392 137.871-.058 2.012c.037.433-.583 2.162-.583 2.162.182.36.543.208.759.009l3.076-4.142s1.212-1.441-1.257-2.008c-.247.994-1.22 2.21-1.937 1.967" fill="#4A2A1A"/>
        <path d="m121.111 95.849-11.25.853c-1.83.67-1.1 11.177-1.1 11.177l7.398.341c3.528-.055 7.771.47 7.93-3.09.291-6.531-2.978-9.281-2.978-9.281" fill="#42947C"/>
        <path d="m110.022 83.088 4.004-1.126 1.126-.135 4.489.8s.788.15 2.019 3.8l.979 2.895c1.481 3.516 1.516 8.981 2.37 12.699-5.67 3.19-14.82 4.312-17.166 1.86-.469-3.995-1.558-10.286-1.233-13.788.292-3.144 2.391-4.491 3.412-7.005" fill="#FFF"/>
        <path d="m114.32 139.811-1.133 1.113c-.321.293-2.074.862-2.074.862-.175.364.167.555.456.603l5.172-.108s1.194-.247.135-2.54c-.941.414-2.311.784-2.557.07" fill="#4A2A1A"/>
        <path d="m108.761 107.879 1.905 14.895 2.505 14.932h6.024s-.563-2.596-.496-3.42c.066-.824.285-8.638-1.551-12.233l.146-14.64-8.533.466z" fill="#42947C"/>
        <path fill="#1C4852" d="m119.994 108.225-2.628.087"/>
        <path d="M111.934 89.17c-2.198.749-11.498-1.697-12.117-2.46-.696-.856-4.915-5.697-4.915-5.697l2.811-2.009s4.208 3.66 4.783 3.814c.574.154 8.278.059 8.278.059l1.16 6.293z" fill="#FFF"/>
        <path fill="#EE8631" d="M94.902 94.553 96.7 90.98H50.315l1.967 2.835z"/>
        <path d="M95.83 91.102h-44.2c-1.773 0-3.224-1.444-3.224-3.21 0-1.765 1.45-3.21 3.224-3.21h44.2c1.772 0 3.223 1.445 3.223 3.21 0 1.766-1.45 3.21-3.224 3.21" fill="#1C4852"/>
        <path fill="#EF8532" d="M87.393 129.206H60.066l-1.457-32.983h30.24z"/>
        <path d="m79.838 111.733 3.344-2.113 2.122 4.344a3.391 3.391 0 0 1-.193 3.214l-1.57 2.534-3.703-7.98z" fill="#FFF"/>
        <path d="m75.19 118.045.064 3.728 5.114.022c1.155.005 2.197-.529 2.774-1.422l1.407-2.288-9.359-.04z" fill="#FFF"/>
        <path fill="#FFF" d="m73.28 119.92 3.508-3.417-.116 6.91zM85.225 116.993s-1.025 1.29-5.722 1.309l-.12 2.228 5.133-2.392.71-1.145zM71.52 118.195l.44 3.919-4.85-.005a3.42 3.42 0 0 1-2.816-1.582l-1.6-2.516 8.825.184z"/>
        <path d="m67.861 111.267-3.393-1.577-2.262 4.568c-.51 1.03-.486 2.197.067 3.106l1.448 2.262 4.14-8.359z" fill="#FFF"/>
        <path fill="#FFF" d="m67.006 108.736 1.546 4.637-6.186-3.134zM64.41 120.71s-.714-1.483 1.328-5.696l-1.958-1.084-.092 5.644.722 1.136zM69.897 108.399l-3.594-1.657 2.52-4.128a3.42 3.42 0 0 1 2.819-1.577l2.989-.058-4.734 7.42z"/>
        <path d="m77.741 108.876 3.114-2.071-2.748-4.295c-.62-.97-1.635-1.553-2.702-1.554l-2.693.06 5.03 7.86z" fill="#FFF"/>
        <path fill="#FFF" d="m80.358 109.46-4.783-1.088 5.899-3.642zM71.424 101.04s1.643.162 4.201 4.085l1.947-1.105-4.798-3.005-1.35.026z"/>
        <path d="M65.518 87.892H52.984a.875.875 0 0 1-.874-.87c0-.48.394-.87.874-.87h12.534c.481 0 .874.39.874.87 0 .478-.393.87-.874.87" fill="#EBA73B"/>
        <path d="M28.272 86.632c-.187.113-.349 3.177-.349 3.177M35.26 88.396s-.322.723-.11 1.446" fill="#F4C543"/>
        <mask id="2iswag5h8d" fill="#fff">
            <use xlink:href="#kah94pgpmc"/>
        </mask>
        <path fill="#ECA83A" mask="url(#2iswag5h8d)" d="M57.583 139.083h33.252v-4.951H57.583z"/>
        <path d="M56.817 141.042c-1.623 0-3.04-1.323-3.148-2.939l-.823-12.242a2.726 2.726 0 0 1 2.753-2.938c1.623 0 3.04 1.322 3.148 2.938l.823 12.242a2.726 2.726 0 0 1-2.753 2.939M91.046 141.042c1.622 0 3.039-1.323 3.147-2.939l.823-12.241a2.726 2.726 0 0 0-2.752-2.939c-1.623 0-3.04 1.322-3.148 2.939l-.823 12.241a2.726 2.726 0 0 0 2.753 2.939" fill="#1C4851" mask="url(#2iswag5h8d)"/>
    </g>
</svg>
