<svg width="62" height="43" viewBox="0 0 62 43" xmlns="http://www.w3.org/2000/svg">
    <path d="m61.429 13.821-30.715 10.75-18.447-6.46 19.014-7.467 1.43-.566-1.133-2.85-1.43.566-21.5 8.446-.835.327-.134-.058v13.706c1.478 2.41 2.668 6.565 0 12.785L0 41.464s3.12-4.463 4.607-9.3v-16.73L0 13.82V10.75L30.714 0 61.43 10.75v3.071zm-47.646 8.082 15.923 5.577 1.018.355 1.017-.355 15.924-5.577 1.478 14.186c0 3.388-8.255 6.911-18.429 6.911-10.174 0-18.428-3.523-18.428-6.91l1.497-14.187z" fill="#004F59" fill-rule="nonzero"/>
</svg>
