<svg width="52" height="52" viewBox="0 0 52 52" xmlns="http://www.w3.org/2000/svg" xmlns:xlink="http://www.w3.org/1999/xlink">
    <defs>
        <path id="9k3tva170a" d="M0 0h52v52H0z"/>
    </defs>
    <g fill="none" fill-rule="evenodd">
        <mask id="xdijrorbob" fill="#fff">
            <use xlink:href="#9k3tva170a"/>
        </mask>
        <path d="M39.002 16.972c2.245 0 4.063-1.727 4.063-4.063 0-2.154-1.818-4.062-4.063-4.062-2.244 0-4.062 1.908-4.062 4.062 0 2.336 1.818 4.063 4.062 4.063M15.905 39.094l-3.137-3.23c-.864-.773-1.168-2.032-.875-3.18a44.08 44.08 0 0 1 1.29-3.432H2.437A2.437 2.437 0 0 1 .34 25.573l5.33-8.988c1.318-2.224 3.708-3.676 6.296-3.676h8.347c.245-.315.488-.69.732-1.056C29.365-.414 41.756-.827 49.149.536a2.86 2.86 0 0 1 2.315 2.313c1.361 7.4.955 19.791-11.314 28.11a9.47 9.47 0 0 1-1.148.637v8.44c0 2.591-1.36 4.979-3.585 6.299l-8.988 5.323a2.456 2.456 0 0 1-2.449.03 2.45 2.45 0 0 1-1.23-2.122v-10.89c-1.43.488-2.68.904-3.625 1.209a3.179 3.179 0 0 1-3.22-.79" fill="#004F59" mask="url(#xdijrorbob)"/>
    </g>
</svg>
