<?xml version="1.0" encoding="utf-8"?>
<!-- Generator: Adobe Illustrator 28.1.0, SVG Export Plug-In . SVG Version: 6.00 Build 0)  -->
<svg version="1.1" id="Ebene_1" xmlns="http://www.w3.org/2000/svg" xmlns:xlink="http://www.w3.org/1999/xlink" x="0px" y="0px"
	 viewBox="0 0 104 70" style="enable-background:new 0 0 104 70;" xml:space="preserve">
<style type="text/css">
	.st0{fill-rule:evenodd;clip-rule:evenodd;fill:#59E5BF;}
</style>
<g>
	<path class="st0" d="M102.6,30.3l-0.2,0.2c-0.2,0.2-0.5,0.3-0.7,0.3c-0.2,0-0.3-0.1-0.3-0.3c0-0.1,0-0.2,0-0.4v-9.9
		c0-4.1-2.6-5.9-6.5-5.9c-3,0-7,1.2-7,5c0,1.3,1.5,1.7,2.3,1.7c0.9,0,2.5-0.4,2.5-1.7c0-1.6,0.3-3.4,2.1-3.4c0.9,0,1.3,0.5,1.6,1.3
		c0.1,0.4,0.2,0.9,0.2,1.2c0,0,0,0,0,0v3.2c0,0,0,0,0,0c-0.8-0.3-1.6-0.4-2.4-0.4c-4,0-7.2,2.4-7.2,6.5c0,3.6,2.9,5.6,6.3,5.6
		c1.5,0,2.8-0.4,3.9-1.4c0,0,0,0,0,0c0.6,0.8,1.5,1.2,2.5,1.2c1.4,0,2.9-0.5,3.8-1.7l0.1-0.1L102.6,30.3z M96.6,29.8
		c0,1-1.2,1.8-2.2,1.8c-1.9,0-2.4-1.9-2.4-3.6c0-2.4,1-4.7,3.7-4.7h0c0.3,0,0.6,0,0.9,0.1c0,0,0,0,0,0V29.8z"/>
	<path class="st0" d="M39.9,27.5c-1,1.5-2.9,2.3-4.7,2.3c-2.5,0-3.8-2.3-4.3-4.5c0,0,0,0,0,0l10.1-4v-0.4c0-4.1-3-6.5-6.9-6.5
		c-5.6,0-8.4,4.4-8.4,9.6c0,5.1,2.7,9.5,8.2,9.5c3.8,0,5.6-2.1,7.1-5.2l0.1-0.2l-1.1-0.7L39.9,27.5z M30.9,23.9c0-0.3,0-0.7,0-1
		c0-2.4,1-6.7,3.7-6.7c1.2,0,2,1,2,2.2c0,1.5-0.9,2.6-2.1,3.5c-0.6,0.5-1.3,0.9-1.9,1.3C32,23.4,31.4,23.7,30.9,23.9
		C30.9,23.9,30.9,23.9,30.9,23.9z"/>
	<path class="st0" d="M23.5,29.6V5.4c0,0,0,0,0,0l-6.3,2.1c0,0,0,0,0,0V9h0.2c1.2,0,1.5,0.4,1.5,1.6v19c0,1.2-0.3,1.6-1.5,1.6h-0.2
		v1.6c0,0,0,0,0,0h8c0,0,0,0,0,0v-1.6H25C23.8,31.2,23.5,30.8,23.5,29.6z"/>
	<path class="st0" d="M15.3,27.9c-0.8,1.4-2.4,2.1-4,2.1c-3.6,0-5.1-3.9-5.1-7.1c0-0.9,0.1-2.7,0.5-4.3c0.5-1.6,1.2-2.8,2.5-2.8
		c0.7,0,1.2,0.5,1.6,1.2c0.2,0.4,0.3,0.8,0.4,1.1l0.3,1.1c0.3,1.2,1.1,2,2.5,2c1.2,0,2.3-0.8,2.3-2.2c0-3.3-3.6-4.8-6.3-4.8
		c-6,0-8.8,4-8.8,9.6c0,5.1,2.5,9.5,8.2,9.5c3.6,0,5.7-1.7,7.1-4.8l0.1-0.2l-1.2-0.7L15.3,27.9z"/>
	<path class="st0" d="M57.6,28.2l0.1-0.2l-1.1-0.7l-0.1,0.2c-1,1.5-2.9,2.3-4.7,2.3c-2.5,0-3.8-2.3-4.3-4.5c0,0,0,0,0,0l10.1-4v-0.4
		c0-4.1-3-6.5-6.9-6.5c-5.6,0-8.4,4.4-8.4,9.6c0,5.1,2.7,9.5,8.2,9.5C54.4,33.4,56.1,31.3,57.6,28.2z M46.9,23.9c0-0.3,0-0.7,0-1
		c0-2.4,1-6.7,3.7-6.7h0c1.2,0,2,1,2,2.2c0,1.5-0.9,2.6-2.1,3.5c-0.6,0.5-1.3,0.9-1.9,1.3C48,23.4,47.4,23.7,46.9,23.9
		C46.9,23.9,46.9,23.9,46.9,23.9z"/>
	<path class="st0" d="M91.1,35.4c-1.8,0-3.9,1.2-5.5,2c0,0,0,0,0,0c-0.1-1.4-0.2-5.1-0.2-6.4V19.8c0-3.6-2.1-5.5-5.7-5.5
		c-2.1,0-4.1,0.8-5.4,2.4c0,0,0,0,0,0c-1.1-1.9-3.2-2.4-5.2-2.4c-1.6,0-3.3,0.5-4.5,1.5v-1.2c0,0,0,0,0,0l-6.5,2.1c0,0,0,0,0,0v1.5
		h0.2c1.1,0,1.5,0.4,1.5,1.6v10c0,1.2-0.4,1.6-1.5,1.6h-0.2v1.6c0,0,0,0,0,0h8.2c0,0,0,0,0,0v-1.6h-0.2c-1.2,0-1.5-0.4-1.5-1.6v-10
		c0-1.6,1.1-3.6,2.8-3.6c2.2,0,2.8,1.5,2.8,3.6v10c0,1.2-0.4,1.6-1.5,1.6h-0.2v1.6c0,0,0,0,0,0h8.2c0,0,0,0,0,0v-1.6h-0.2
		c-1.2,0-1.5-0.4-1.5-1.6V19.8c0-1.6,1.3-3.5,3-3.5c1.9,0,2.6,1.8,2.6,3.6v11.6c0,1.8,0.1,5.9,0.6,7.7c0,0,0,0,0,0
		c-1.7,0.7-3.6,1.3-5.4,1.8c0,0,0.2,0.4,0.4,0.7c0.1,0.4,0.1,0.7,0.1,1c1.7-0.4,3.8-1,5.5-2c0,0,0,0,0,0c1.5,3.4,4.5,4.6,8.1,4.6
		c2.3,0,5.4-0.6,6.8-2.8c0,0,0,0,0,0c0.3-0.6,0.6-1.3,0.6-2.1C97.1,37.2,93.5,35.4,91.1,35.4z M90.9,43.5c-3.4,0.4-4.4-1.5-4.9-4.2
		c0,0,0,0,0,0c0.9-0.4,2-0.6,3-0.6c1.8,0,3.9,0.1,4.1,2C93.3,42.1,92.2,43.3,90.9,43.5z"/>
	<path class="st0" d="M75.8,42.8c-0.7,0.2-2,0.6-2.1,0.6c-6.7,2.3-13.9,1.1-14.2,1.1c-0.3,0-0.5,0-0.6-0.2c0-0.2,0.2-0.2,0.3-0.2
		c0.1,0,3.8-0.4,5.9-0.6c0,0,0,0,0,0c5.5-1,8.7-2,10-2.4c0,0,0,0,0,0c-1.4-2-4.9-5.1-10.5-5c-5.7,0.1-13.2,7.3-13.2,7.4c0,0,0,0,0,0
		c0,0,8.8,7.4,13.8,7.2C71.8,50.4,75.4,44.7,75.8,42.8C75.8,42.8,75.8,42.8,75.8,42.8z"/>
	<path class="st0" d="M81.5,45.7c-0.7-0.1-1-0.2-1.6-0.2c-0.1,0-0.2,0-0.2,0.1c0,0.5,0.1,2.1,0.9,5.1c0.4,1.7,1.3,4.3,1.3,4.3
		c0,0.1,0.1,0.2-0.1,0.2c-0.1,0-0.2-0.2-0.3-0.4c-0.1-0.2-3.4-4.3-3.9-8.3c0-0.3,0-0.7-0.1-0.8c0,0-0.1,0-0.2,0.1
		c-1.2,1.1-4.7,6.6-1.8,12.3c3.5,7.3,12.9,8.8,12.9,8.8c0,0,2-11.8-0.2-15.9C86.2,47.2,84,46.3,81.5,45.7z"/>
</g>
</svg>
