<svg width="53" height="47" viewBox="0 0 53 47" xmlns="http://www.w3.org/2000/svg">
    <path d="M25.183 17.984a9.099 9.099 0 0 1-.935-1.127L2.638 35.733a6.495 6.495 0 0 0-.005 9.187c1.275 1.27 2.939 1.901 4.522 1.901a6.61 6.61 0 0 0 4.592-1.901l18.87-21.602a9.588 9.588 0 0 1-1.075-.902l-4.36-4.432zM52 18.336l-2.041-2.041a2.156 2.156 0 0 0-1.53-.635c-.58 0-1.123.227-1.532.635l-.51.51-1.816-1.816c.414-2.116-.24-4.322-1.758-5.84l-4.082-4.082C35.948 2.199 32.058.622 28.088.622c-4.05 0-7.858 1.577-10.72 4.44l-.704.709 8.662 4.336v1.245c0 1.71.694 3.385 1.904 4.595l4.436 4.434a6.404 6.404 0 0 0 4.56 1.88c.43 0 .86-.04 1.28-.124l1.814 1.816-.51.51a2.168 2.168 0 0 0 0 3.062l2.041 2.04c.41.411.954.636 1.533.636.577 0 1.123-.225 1.53-.635l8.17-8.164A2.113 2.113 0 0 0 52 18.336z" fill="#FFF" fill-rule="evenodd"/>
</svg>
