<?xml version="1.0" encoding="UTF-8" standalone="no"?>
<!DOCTYPE svg PUBLIC "-//W3C//DTD SVG 1.1//EN" "http://www.w3.org/Graphics/SVG/1.1/DTD/svg11.dtd">
<svg width="100%" height="100%" viewBox="0 0 390 366" version="1.1" xmlns="http://www.w3.org/2000/svg" xmlns:xlink="http://www.w3.org/1999/xlink" xml:space="preserve" xmlns:serif="http://www.serif.com/" style="fill-rule:evenodd;clip-rule:evenodd;stroke-linejoin:round;stroke-miterlimit:2;">
    <g transform="matrix(1,0,0,1,-25,192.665)">
        <g>
            <g id="x0jleq60zf" transform="matrix(1,0,0,1,25,-192.665)">
                <path d="M0,366.816L0,261.374L0.693,261.374C16.78,276.594 28.214,287.484 34.997,294.044C60.809,319.006 78.096,334.152 86.14,334.152C102.961,334.152 105.283,314.525 125.637,314.525C145.991,314.525 145.991,337.623 181.359,337.623C193.574,337.623 210.659,331.113 224.841,316.907C251.723,289.98 271.222,246.659 317.764,246.659C348.122,249.098 372.201,259.104 390,276.672L390,366.816L0,366.816Z"/>
            </g>
            <g id="x0jleq60zf1" serif:id="x0jleq60zf" transform="matrix(1,0,0,1,25,-192.665)">
                <path d="M0,366.816L0,261.374L0.693,261.374C16.78,276.594 28.214,287.484 34.997,294.044C60.809,319.006 78.096,334.152 86.14,334.152C102.961,334.152 105.283,314.525 125.637,314.525C145.991,314.525 145.991,337.623 181.359,337.623C193.574,337.623 210.659,331.113 224.841,316.907C251.723,289.98 271.222,246.659 317.764,246.659C348.122,249.098 372.201,259.104 390,276.672L390,366.816L0,366.816Z" style="fill:rgb(89,229,191);"/>
            </g>
        </g>
    </g>
</svg>
