<?xml version="1.0" encoding="UTF-8" standalone="no"?>
<!DOCTYPE svg PUBLIC "-//W3C//DTD SVG 1.1//EN" "http://www.w3.org/Graphics/SVG/1.1/DTD/svg11.dtd">
<svg width="100%" height="100%" viewBox="0 0 390 366" version="1.1" xmlns="http://www.w3.org/2000/svg" xmlns:xlink="http://www.w3.org/1999/xlink" xml:space="preserve" xmlns:serif="http://www.serif.com/" style="fill-rule:evenodd;clip-rule:evenodd;stroke-linejoin:round;stroke-miterlimit:2;">
    <g transform="matrix(1,0,0,1,-77,-17.0024)">
        <g transform="matrix(1,0,0,1,52,17.002)">
            <path id="jwfdtpqi9h" d="M94.91,13.768C94.635,5.908 90.608,-0.33 80.782,0.014C70.957,0.357 60.718,11.319 60.993,19.179C61.267,27.039 67.673,30.733 77.499,30.389C87.325,30.047 95.184,21.629 94.909,13.769L94.91,13.768Z"/>
            <path id="jwfdtpqi9h1" serif:id="jwfdtpqi9h" d="M94.91,13.768C94.635,5.908 90.608,-0.33 80.782,0.014C70.957,0.357 60.718,11.319 60.993,19.179C61.267,27.039 67.673,30.733 77.499,30.389C87.325,30.047 95.184,21.629 94.909,13.769L94.91,13.768Z" style="fill:rgb(0,176,145);"/>
        </g>
        <g transform="matrix(1,0,0,1,52,17.002)">
            <path id="_20mlrn9bpj" serif:id="20mlrn9bpj" d="M96.214,36.178C92.894,38.867 91.504,42.652 94.865,46.803C98.225,50.953 106.328,51.81 109.648,49.122C112.968,46.433 112.476,42.447 109.115,38.297C105.755,34.147 99.534,33.489 96.214,36.177L96.214,36.178Z"/>
            <path id="_20mlrn9bpj1" serif:id="20mlrn9bpj" d="M96.214,36.178C92.894,38.867 91.504,42.652 94.865,46.803C98.225,50.953 106.328,51.81 109.648,49.122C112.968,46.433 112.476,42.447 109.115,38.297C105.755,34.147 99.534,33.489 96.214,36.177L96.214,36.178Z" style="fill:rgb(0,176,145);"/>
        </g>
    </g>
</svg>
