<svg width="51" height="43" viewBox="0 0 51 43" xmlns="http://www.w3.org/2000/svg">
    <path d="M48.549 8.302a3.968 3.968 0 0 0-1.678-.007c-4.16.889-7.091.85-9.426.327-4.958-1.112-7.254-4.41-12.965-5.69-2.015-.452-4.52-.615-7.666-.368L10.36 31.73c2.829-.237 5.21-.063 7.274.4 6.088 1.364 9.743 4.958 15.835 6.326 2.64.591 5.734.763 9.612.136 1.211-.159 2.077-.97 2.304-1.994l5.549-25.076c.362-1.634-.814-2.867-2.385-3.22zM5.325 41.932a1.362 1.362 0 0 1-1.62 1.035l-2.645-.593a1.371 1.371 0 0 1-1.028-1.627l8.546-38.61a2.699 2.699 0 0 1 3.235-2.07 2.72 2.72 0 0 1 2.056 3.255l-8.544 38.61z" fill="#FFF" fill-rule="evenodd"/>
</svg>
