<?xml version="1.0" encoding="UTF-8" standalone="no"?>
<!DOCTYPE svg PUBLIC "-//W3C//DTD SVG 1.1//EN" "http://www.w3.org/Graphics/SVG/1.1/DTD/svg11.dtd">
<svg width="100%" height="100%" viewBox="0 0 390 366" version="1.1" xmlns="http://www.w3.org/2000/svg" xmlns:xlink="http://www.w3.org/1999/xlink" xml:space="preserve" xmlns:serif="http://www.serif.com/" style="fill-rule:evenodd;clip-rule:evenodd;stroke-linejoin:round;stroke-miterlimit:2;">
    <g transform="matrix(1,0,0,1,-25,192.665)">
        <g>
            <g id="ibj7utxh2d" transform="matrix(1,0,0,1,25,-192.665)">
                <path d="M0,366.816L0,218.608L0.184,218.608C15.711,204.161 35.067,196.938 58.254,196.938C69.886,196.938 96.116,201.715 113.903,215.815C131.69,229.915 145.067,260.896 169.309,259.288C211.296,256.505 203.422,192.665 252.366,192.665C278.613,192.665 290.351,200.687 305.418,213.228C333.806,236.857 344.595,272.424 358.693,276.884C367.573,279.694 377.993,276.341 389.955,266.829L390,266.829L390,366.816L0,366.816Z"/>
            </g>
            <g id="ibj7utxh2d1" serif:id="ibj7utxh2d" transform="matrix(1,0,0,1,25,-192.665)">
                <path d="M0,366.816L0,218.608L0.184,218.608C15.711,204.161 35.067,196.938 58.254,196.938C69.886,196.938 96.116,201.715 113.903,215.815C131.69,229.915 145.067,260.896 169.309,259.288C211.296,256.505 203.422,192.665 252.366,192.665C278.613,192.665 290.351,200.687 305.418,213.228C333.806,236.857 344.595,272.424 358.693,276.884C367.573,279.694 377.993,276.341 389.955,266.829L390,266.829L390,366.816L0,366.816Z" style="fill:rgb(0,176,145);"/>
            </g>
        </g>
    </g>
</svg>
