<svg width="24" height="22" viewBox="0 0 24 22" xmlns="http://www.w3.org/2000/svg">
    <path d="M22.5.75H6a1.5 1.5 0 0 0-1.5 1.5V18A.751.751 0 0 1 3 18V3.75H1.5A1.5 1.5 0 0 0 0 5.25v13.5a3 3 0 0 0 3 3h18a3 3 0 0 0 3-3V2.25a1.5 1.5 0 0 0-1.5-1.5zm-9.75 18h-4.5A.752.752 0 0 1 7.5 18c0-.413.338-.75.75-.75h4.5a.75.75 0 1 1 0 1.5zm0-4.5h-4.5a.752.752 0 0 1-.75-.75c0-.412.338-.75.75-.75h4.5c.412 0 .75.338.75.75s-.338.75-.75.75zm7.5 4.5h-4.5a.75.75 0 0 1 0-1.5h4.5a.75.75 0 1 1 0 1.5zm0-4.5h-4.5a.752.752 0 0 1-.75-.75c0-.412.338-.75.75-.75h4.5c.413 0 .75.338.75.75s-.337.75-.75.75zM21 9c0 .412-.337.75-.75.75h-12A.752.752 0 0 1 7.5 9V4.5c0-.412.338-.75.75-.75h12c.413 0 .75.338.75.75V9z" fill="#00B091" fill-rule="nonzero"/>
</svg>
