<svg width="150" height="135" viewBox="0 0 150 135" xmlns="http://www.w3.org/2000/svg" xmlns:xlink="http://www.w3.org/1999/xlink">
    <defs>
        <path id="5hyj6zntta" d="M0 0h150v103.293H0z"/>
        <path id="3hao5txo6c" d="M0 0h78.144v22.455H0z"/>
    </defs>
    <g fill="none" fill-rule="evenodd">
        <g>
            <mask id="6ovqejxtfb" fill="#fff">
                <use xlink:href="#5hyj6zntta"/>
            </mask>
            <path d="M145.68 74.792C161.59 40.252 131.388-1.236 90.517.028 78.197.41 66.293 4.873 58.061 17.264 32.732 55.389 4.485 42.022.475 64.607c-4.01 22.586 17.11 50.252 73.394 33.601 21.302-6.302 49.454 17.427 66.378-12.808 2.053-3.668 3.863-7.2 5.433-10.608" fill="#FFECC2" mask="url(#6ovqejxtfb)"/>
        </g>
        <path d="M100.15 33.36c7.641-.894 14.612 3.051 16.989 9.591 3.808 10.479 2.569 21.114-1.09 25.327-3.236 3.726-9.515 6.876-11.165 11.33-.84 2.27-2.104 4.933-4.004 7.793-7.514 11.309-14.426 8.391-19.734 16.037-7.115 10.248-17.394 2.32-17.394 2.32s-12.804-4.13-6.143-14.616c4.97-7.822-1.258-11.769 6.256-23.077a40.63 40.63 0 0 1 5.747-6.883c3.595-3.438 3.66-9.835 5.766-14.15 2.504-5.127 10.758-12.035 24.772-13.673" fill="#F4C543"/>
        <path d="M68.379 27.747c7.06-3.263 14.96-1.722 19.25 3.732 6.872 8.738 8.948 19.22 6.73 24.374-1.961 4.558-7.02 9.531-7.235 14.28-.11 2.419-.505 5.344-1.45 8.658-3.74 13.104-11.268 12.52-14.015 21.452-3.681 11.972-15.981 7.698-15.981 7.698s-13.556.128-10.382-11.926c2.367-8.992-4.821-10.768-1.082-23.873a40.983 40.983 0 0 1 3.4-8.346c2.395-4.398.493-10.488 1.19-15.248.829-5.656 6.629-14.818 19.575-20.801" fill="#F4C543"/>
        <path stroke="#EF8432" stroke-linecap="round" d="m77.246 37.725-15.27 40.419M79.042 46.707l-7.186 4.491M73.653 63.772l-8.084 3.593M71.856 51.198l-1.796-8.084M65.569 67.365l-2.695-8.084"/>
        <path d="M31.963 67.276s1.044-.948 1.613-.792c.593.163 1.239.499 1.328.619.088.12 1.493.775 1.185 1.46-.308.685 1.105 1.303.644 1.92-.46.616.303 1.5-.54 1.874-.863.384-.383.964-1.125.99-.291.01-.438.182-.71.277-.423.147-.457-.305-.759-.551-.253-.207-4.141-.72-3.828-1.116.237-.3.07-1.327-.12-1.642-.213-.35 3.177-.378 2.889-.496-1.114-.46-.793-1.946-.793-1.946l.216-.597z" fill="#522F1D"/>
        <path d="M32.783 67.09s-1.09-.77-1.68-.598c-.59.172-.726.138-.854.23-.13.09-1.576.579-1.526 1.24.05.66-1.524.832-1.302 1.458.221.627-.987 1.602-.213 1.982.774.38.134.893.84 1.045.705.152 1.707.646 2.184-.071.197-.297.168-2.826 1.406-3.038 1.24-.212 1.596-1.447 1.596-1.447l-.451-.8z" fill="#522F1D"/>
        <path d="M98.769 110.604c1.872-.497 5.074-1.994 7.394-3.144.631.713 1.48 1.07 2.408 1.202-4.254.625-8.65 1.662-9.802 1.942m-10.4-.877s1.573-.04.389-3.76c-.617-1.941.923-3.347 2.537-4.25-.358 1.33 2.983 2.178 7.654 2.115.135-.002.258 0 .388-.001.945.288 1.901.575 2.816.93-1.277.87-2.7 1.92-3.618 2.327-5.808 2.585-10.166 2.639-10.166 2.639m26.305-2.16c-.31.192-.621.373-.944.613-.321.004-.655.015-1.002.034.814-.23 1.503-.484 1.946-.647m25.075-5.292c-.757-2.611-2.756-3.881-4.416-5.494-1.66-1.612-2.663-2.472-5.631-2.792l-13.188-3.263a7.088 7.088 0 0 0-1.104.195c-.089-.033-.177-.065-.265-.099-8.376-3.263-8.87 2.636-16.502.95-7.63-1.688-7.227 3.313-12.466 3.19-5.239-.124-4.21 3.958-4.21 3.958-.109.922.237 1.574.87 2.027-6.246 2.211 1.656 5.718-3.707 7.998-2.57 1.092-9.195 2.336-13.97 3.14-2.77.467-4.009 2.093-2.597 3.408l3.325 3.099c1.243 1.157 4.072 1.61 6.349 1.01 7.43-1.959 23.08-5.59 29.846-3.439 4.192 1.332 5.033.914 9.927 3.569 2.373 1.287 5.76 1.964 12.851 1.212 9.694-1.028 7.326-9.043 7.33-9.044 6.249-1.973 8.986-4.7 7.558-9.625" fill="#DBE8CC"/>
        <path d="M44.907 83.132c-.032.234-.264.414-.516.4l-.875-.047c-.25-.014-.43-.216-.399-.45.032-.233.264-.413.516-.4l.874.048c.252.013.431.215.4.449" fill="#9E572A"/>
        <path d="M34.435 83.024c1.54 2.983 9.577.296 9.577.296l-.043-1.016-6.248-1.327s-4.826-.935-3.286 2.047" fill="#9E572A"/>
        <path fill="#9E572A" d="m34.93 74.55 2.795 6.54-2.94 1.545-2.45-5.705z"/>
        <path d="M20.733 119.759c2.704-1.478 7.346-1.604 10.368-.28.516.226.949.48 1.303.752 1.91-.622 4.506-.564 6.296.22 2.123.93 2.305 2.526.405 3.564-1.826.999-4.907 1.116-7.029.298a5.992 5.992 0 0 1-.399.24c-2.703 1.478-7.345 1.603-10.368.28-3.022-1.325-3.28-3.596-.576-5.074" fill="#DBE8CC"/>
        <path d="m24.251 119.842-.04 1.49c-.016.157-.213.981-.3 1.124-.25.41-.663.576-1.061.597-.528.028-1.591-.688-1.214-1.578.33-.776.987-2.014.987-2.014.745.262 1.09.382 1.628.381M35.631 121.276l-2.278-2.457a2.336 2.336 0 0 0-1.371-.233.507.507 0 0 0-.416.47l-.1.522c-.081.682-.009.968.457 1.195l2.485 1.178c.567.408 2.18.219 1.223-.675" fill="#472919"/>
        <path d="M32.825 118.57s1.483 1.592 1.29 1.702c-.804.46-2.678-1.052-2.678-1.052s1.043-.733 1.388-.65" fill="#9E572A"/>
        <path d="M31.88 119.398c.645.004 1.219.34 1.295-.58-.016-5.15 1.867-8.743 1.855-13.557-.014-5.406-1.126-6.257-1.16-14.542l-5.127.8c.948 5.958 2.368 13.742 2.368 13.742-1.565 5.894-.22 7.038.77 14.137M22.604 119.55c.354.893 1.053 1.145 1.2.255.422-5.017 1.985-9.134 2.382-13.824.446-5.267.088-5.392.76-13.466l-4.715.33c.354 5.887.08 13.253.08 13.253-1.72 5.508 0 6.45.293 13.452" fill="#9E572A"/>
        <path d="M32.106 84.436s3.372-.789 2.874 18.2c0 0-3.506 1.475-6.766 2.336-3.073.811-5.07-2.863-7.555-1.989 0 0 1.537-3.63 1.33-5.33-.206-1.7-1.232-11.634 1.52-11.957 2.752-.324 8.597-1.26 8.597-1.26" fill="#65DEBA"/>
        <path d="M20.7 103.008s.196-3.92 0-5.602c-.197-1.682.237-12.652 2.862-12.972.6-.073 1.208 1.286 2.013 1.168-.183 1.636-.55 4.318-1.273 8.705-.964 5.848.856 9.075 2.644 10.783-2.409-.08-4.292 0-6.246-2.082" fill="#42947C"/>
        <path d="M34.19 71.723c-1.166-.297-2.563-.804-2.707-.763l-1.93.368c-1.743.248-4.525 1.886-4.581 4.954 0 0-.597 1.989-1.003 3.59-.351 1.385-1.086 2.927-1.452 3.302-.474.486 1.743 4.98 7.38 5.615 4.281.483 4.835-.324 4.525-2.835-.182-1.475-.224-5.238.122-6.365.345-1.128 1.478-1.735 1.378-3.724-.1-1.988-.999-3.515-.999-3.515s-.481-.562-.734-.627" fill="#F4C543"/>
        <path d="m31.253 72.741.178-.09c.35.143.693.165.85-.113l.891-1.563c.158-.278 0-.621-.35-.764l-.105-.042c-.35-.142-.955-.179-1.113.098L30.57 71.9c-.157.277.333.699.684.841" fill="#9E572A"/>
        <path d="M32.335 72.235s-.647-.265-.898-1.277c0 0 .17 1.43.734 1.796l.164-.519z" fill="#8A4C25"/>
        <path d="m31.926 71.856.41.106s-.018 1.411-.4 1.69l-.499-.704s.452-.56.489-1.092M31.437 73.087l-.624.566s-1.505-.59-1.105-1.6l.833-.197c-.074.27.275 1.166.896 1.231" fill="#FFF"/>
        <path d="M24.251 119.711s-.369 1.68-1.285 1.538c-.916-.142-.32-1.788-.32-1.788l1.605.25zM28.697 76.347l2.74 6.583-2.988 1.501-2.401-5.743z" fill="#9E572A"/>
        <path d="M25.311 75.59s-.332 1.982-.044 4.006c.288 2.024 5.398 1.662 5.27-1.73-.13-3.394-1.81-4.213-1.81-4.213L25.31 75.59zM31.437 74.584s.684 2.435 1.564 4.371c.88 1.937 5.681.954 4.553-2.386-1.128-3.34-2.926-4.713-2.926-4.713l-3.19 2.728z" fill="#F4C543"/>
        <path stroke="#C77C11" stroke-width=".5" stroke-linecap="round" stroke-linejoin="round" d="m29.641 75.449.898 1.797M34.132 75.449l.898 1.797"/>
        <path d="M94.372 112.247c3.137-1.936 1.422-5.93-.447-8.792-1.261-1.93-4.314-2.622-6.855-2.851 2.778-2.833 3.797-5.884 3.313-6.97-.774-1.734-7.033-.935-7.033-.935.438 1.36-.29 3.032-1.376 4.597-8.468-6.792-17.877-3.383-17.877-3.383-3.054-.52-7.799 1.183-15.636 8.926-4.343 4.29-7.452 7.24-7.12 10.237.143 1.28.123 5.298 6.437 6.816 1.32.317 2.322.15 3.417-.306a7.7 7.7 0 0 0-.53.597l-.007.002h.006c-.806 1.008-2.52 4.13-1.717 4.953 1.171 1.2 13.52 1.544 15.708 1.506 5.673-.1 6.022-1.435 13.72-3.895 16.456-5.257 18.132-8.443 15.997-10.502" fill="#DBE8CC"/>
        <path d="M31.437 57.934a1.347 1.347 0 1 1-2.694 0 1.347 1.347 0 0 1 2.694 0M98.802 12.126a1.347 1.347 0 1 1-2.694 0 1.347 1.347 0 0 1 2.694 0M137.425 61.527a1.347 1.347 0 1 1-2.694 0 1.347 1.347 0 0 1 2.694 0" fill="#41947C"/>
        <path d="M81.456 71.856c-4.621 6.95-1.697 14.666-5.401 21.659-4.257 8.038-24.277 13.156-13.753 22.53 6.985 6.223 15.354-7.362 22.454-9.23 8.892-2.338 15.777 1.963 24.825 1.631-.384-8.316-5.923-11.13-14.333-9.862 7.538-3.823 17.586-15.036 9.24-19.338-7.384-3.808-14.1 9.036-20.753 13.982-.541-6.823.326-13.873 3.452-19.962l-5.731-1.41" fill="#42947C"/>
        <path d="m103.053 106.062-1.503-1.933c-3.039-3.909-2.25-9.535 1.754-12.503 4.004-2.967 9.766-2.196 12.805 1.713l1.502 1.933c3.04 3.91 2.25 9.536-1.754 12.503-4.003 2.967-9.765 2.196-12.804-1.713" fill="#65DEBA"/>
        <path d="m114.73 102.47-1.503-1.933c-3.04-3.91-2.25-9.536 1.754-12.503 4.004-2.968 9.766-2.197 12.805 1.712l1.502 1.933c3.04 3.91 2.25 9.536-1.754 12.503-4.004 2.967-9.766 2.197-12.805-1.713" fill="#65DEBA"/>
        <path d="m106.645 110.553-1.502-1.933c-3.039-3.909-2.25-9.535 1.754-12.503 4.004-2.967 9.766-2.196 12.805 1.713l1.502 1.933c3.04 3.91 2.25 9.536-1.754 12.503-4.004 2.967-9.766 2.196-12.805-1.713M90.478 84.505l-1.503-1.933c-3.039-3.909-2.25-9.535 1.754-12.503 4.004-2.967 9.766-2.196 12.805 1.713l1.503 1.933c3.039 3.91 2.25 9.536-1.754 12.503-4.004 2.967-9.766 2.197-12.805-1.713" fill="#65DEBA"/>
        <path d="m105.747 81.81-1.502-1.932c-3.04-3.91-2.25-9.536 1.754-12.503 4.004-2.967 9.766-2.197 12.805 1.713l1.502 1.932c3.04 3.91 2.25 9.536-1.754 12.503-4.004 2.968-9.766 2.197-12.805-1.712" fill="#65DEBA"/>
        <path d="m112.933 89.894-1.503-1.932c-3.038-3.91-2.25-9.536 1.755-12.503 4.003-2.968 9.765-2.197 12.804 1.712l1.503 1.933c3.039 3.91 2.25 9.536-1.755 12.503-4.003 2.967-9.765 2.197-12.804-1.713" fill="#65DEBA"/>
        <path d="m100.358 93.487-1.502-1.932c-3.04-3.91-2.25-9.536 1.754-12.503 4.003-2.968 9.766-2.197 12.804 1.712l1.503 1.933c3.039 3.91 2.25 9.536-1.754 12.503-4.004 2.967-9.766 2.197-12.805-1.713M84.19 78.218l-1.502-1.933c-3.04-3.91-2.25-9.536 1.754-12.503 4.004-2.967 9.766-2.197 12.805 1.713l1.502 1.933c3.04 3.909 2.25 9.535-1.754 12.503-4.004 2.967-9.766 2.196-12.805-1.713" fill="#65DEBA"/>
        <path d="M73.412 75.523 71.91 73.59c-3.04-3.909-2.25-9.535 1.754-12.503 4.003-2.967 9.765-2.196 12.804 1.713l1.503 1.933c3.039 3.91 2.25 9.536-1.754 12.503-4.004 2.967-9.766 2.196-12.805-1.713" fill="#65DEBA"/>
        <path d="m80.598 66.541-1.503-1.933c-3.039-3.909-2.25-9.535 1.754-12.503 4.004-2.967 9.766-2.196 12.805 1.713l1.502 1.933c3.04 3.91 2.25 9.536-1.754 12.503-4.003 2.967-9.766 2.196-12.804-1.713" fill="#65DEBA"/>
        <path d="M96.765 70.134 95.263 68.2c-3.04-3.91-2.25-9.535 1.754-12.503 4.004-2.967 9.766-2.196 12.805 1.713l1.502 1.933c3.039 3.91 2.25 9.535-1.754 12.503-4.004 2.967-9.766 2.196-12.805-1.713" fill="#65DEBA"/>
        <path d="m112.933 74.625-1.503-1.933c-3.038-3.91-2.25-9.535 1.755-12.503 4.003-2.967 9.765-2.196 12.804 1.713l1.503 1.933c3.039 3.91 2.25 9.535-1.754 12.503-4.004 2.967-9.766 2.196-12.805-1.713" fill="#65DEBA"/>
        <path d="M111.51 84.21c-5.583-1.166-9.163-6.638-7.996-12.221 1.167-5.583 6.639-9.163 12.222-7.996 5.582 1.167 9.162 6.639 7.996 12.222-1.167 5.583-6.64 9.162-12.222 7.996" fill="#42947C"/>
        <path d="M99.833 77.923c-5.583-1.167-9.163-6.639-7.996-12.221 1.167-5.584 6.64-9.163 12.222-7.996 5.583 1.166 9.163 6.638 7.996 12.221-1.167 5.583-6.639 9.163-12.222 7.996" fill="#42957D"/>
        <path d="M110.295 88.005a.898.898 0 1 1 .368-1.758.898.898 0 0 1-.368 1.758M78.858 63.753a.898.898 0 1 1 .368-1.758.898.898 0 0 1-.368 1.758M103.11 64.651a.898.898 0 1 1 .367-1.758.898.898 0 0 1-.367 1.758M86.942 71.837a.898.898 0 1 1 .368-1.758.898.898 0 0 1-.368 1.758M121.972 93.394a.898.898 0 1 1 .368-1.758.898.898 0 0 1-.368 1.758M108.499 102.376a.898.898 0 1 1 .367-1.758.898.898 0 0 1-.367 1.758M117.48 70.939a.898.898 0 1 1 .368-1.758.898.898 0 0 1-.367 1.758" fill="#1C4852"/>
        <path d="M89.82 99.7s3.915-.289 5.39-.898M84.459 94.311l-.045-2.694" stroke="#28401D" stroke-width=".675" stroke-linecap="round" stroke-linejoin="round"/>
        <path d="M36.826 89.899s2.127-8.676 13.825-6.869l3.9 2.518s4.302-5.464 9.211-3.308c4.91 2.156 11.439 6.168 8.061 11.182s-10.694 11.993-11.425 12.526c-.73.534-16.852-4.508-16.852-4.508l-6.72-11.541z" fill="#C45A37"/>
        <path d="M52.7 90.661s-1.63-9.906-5.993-12.806c0 0 2.89-4.326 5.08-3.078 2.189 1.248 7.127 9.552 5.3 16.84L52.7 90.66z" fill="#42947C"/>
        <path d="M53.34 88.055s-7.463-.065-6.557 4.12c.906 4.187 8.092 9.309 15.159 2.172 7.066-7.136-8.601-6.292-8.601-6.292" fill="#42947C"/>
        <path d="M43.627 91.248c-4.056-1.42-13.586-6.343-7.538 16.725 1.759 6.71 2.893 11.391 6.145 14.148 1.389 1.177 5.467 5.138 10.804 3.01 2.796-1.115 1.32-4.037 2.48-9.624 4.787-23.088-7.81-22.523-11.891-24.259" fill="#E2683F"/>
        <path d="M66.679 91.45c4.264-.859 14.345-4.558 7.151 18.933-2.092 6.833-.957 8.346-4.22 11.698-1.258 1.292-6.503 5.048-13.012 3.134-3.078-.904-2.43-3.83-3.22-9.943-2.634-20.377 8.998-22.633 13.3-23.822" fill="#E2683F"/>
        <path d="M54.79 97.006s2.091 20.155.47 25.11l-.368.938s4.511-3.339 1.633-24.99l-1.735-1.058z" fill="#C45A37"/>
        <path d="M40.997 108.682a3.077 3.077 0 0 1-3.131-3.004l-.14-7.348a3.077 3.077 0 0 1 3.014-3.12 3.078 3.078 0 0 1 3.13 3.004l.141 7.348a3.077 3.077 0 0 1-3.014 3.12M62.501 105.09c-1.72.032-3.153-1.361-3.186-3.097l-.033-1.77c-.033-1.736 1.347-3.183 3.067-3.216 1.72-.034 3.153 1.36 3.186 3.096l.033 1.77c.033 1.736-1.347 3.183-3.067 3.216" fill="#FF895E"/>
        <g transform="translate(64.67 112.275)">
            <mask id="rwo5jltrnd" fill="#fff">
                <use xlink:href="#3hao5txo6c"/>
            </mask>
            <path d="M63.498 16.033c-1.867.726-2.776.807-3.681.275-.811-.477.666-.484.622-.798a1.18 1.18 0 0 0 .428-.106c.575-.298-1.459-.694-.45-.983 1.01-.29 1.945-.006 3.795 1.099.196.117.388.21.574.286a3.165 3.165 0 0 0-1.288.227m-6.453-.386c-.83.38-2.04.366-3.028.261-.053-.116-.19-.203-.402-.215-4.134-.232-6.785-.112-8.215.015a4.204 4.204 0 0 0-.351-.564c.037-.009.074-.016.11-.03.022-.008 2.203-.826 7.876-1.447l2.634.035c.657.156 1.298.377 1.781.7.459.308.884.538 1.276.714-.485.074-1.049.241-1.68.531m18.112-1.074c3.482.109 2.958-.545 2.958-.545s-.096-3.134-4.823-3.308l-4.2-1.822L63.005.495c-.07-.261-.315-.382-.315-.382s-.7-.605-2.524.99c-1.44 1.259-1.994 1.634-2.585 1.463-.59-.172-.141-.912-1.108-.699-.966.213.134 2.162-.72 2.593-.853.432-1.31.36-1.566-.181-.257-.541-2.364-.347-1.733 1.099.63 1.446.528 2.02-.491 2.299-1.02.278-.461-.843-1.245-.76-.784.083-1.145.762-.425 2.076.393.717 0 1.472-.436 2.013-.177.003-.34.028-.45.086-2.692 1.416-4.732 2.171-5.95 2.554-1.599-1.096-3.862-1.808-6.186-1.452L9.59 16.43C7.907 16.688.189 17.61 0 18.897l.157.18C-1.298 24.22 39.4 21.963 39.4 21.963c7.3-.338 6.39-4.254 6.39-4.254a32.837 32.837 0 0 0-.111-1.2c1.416-.104 3.857-.182 7.501.022.154.009.312-.026.452-.083.97.278 2.152.739 2.675 1.431.96 1.27 2.029 1.68 2.739 1.484.71-.196-1.027-.888.094-1.01 1.122-.122 1.867.293 3.049 1.636s3.057.791 2.63.282c-.425-.509-.152-.718 1.017-.665 1.17.053 2.565 1.946 3.57 1.79 1.003-.155-.206-.585.057-.916.264-.331 1.133-.222 3.72.283 3.277.64 3.124-.067 3.124-.067s.252-.802-2.741-1.207c-2.613-.354-3.377-.735-3.402-1.125-.025-.39 1.3-.307.518-.824-.781-.516-3.177.61-4.232.212-1.055-.397-1.164-.683-.476-.967.332-.137.199-.484-.234-.727 1.027.11 1.618-.376 1.143-.67-.68-.423-.53-.665.619-.794 1.148-.129 3.496 1.47 4.376 1.167.879-.303-.51-.53-.434-.887.075-.358.966-.387 3.714-.3" fill="#DBE8CC" mask="url(#rwo5jltrnd)"/>
        </g>
        <path d="M109.083 122.154c-.156-.015-.294-.129-.36-.321-.107-.307.007-.698.255-.875.081-.058 2.044-1.427 7.285-2.389.272-.05.496.195.503.546.007.352-.207.677-.479.727-5.005.919-6.902 2.217-6.92 2.23a.423.423 0 0 1-.284.082" fill="#42947C"/>
        <path d="M124.901 123.151c1.424 1.595 2.58.417 2.057-.193-.523-.61-.408-.96.477-1.145.884-.186 2.692 2.122 3.369 1.685.677-.438-.392-.765-.334-1.281.058-.517.744-.558 2.86-.434 2.68.158 2.277-.786 2.277-.786s-.143-1.165-2.518-1.061c-2.073.09-2.794-.268-2.972-.801-.178-.533.833-.713.044-1.254-.789-.541-2.094 1.546-3.035 1.232-.942-.315-1.14-.687-.749-1.232.392-.545-1.056-1.908-2.135-.49-1.08 1.419-1.717 1.732-2.603 1.197-.886-.536.574-.893.024-1.393-.55-.5-1.447-.299-2.34 1.094-.676 1.053-2.327 1.093-3.093 1.05-.221-.013-.381.128-.36.318.022.19.217.355.44.374.767.065 2.455.34 3.385 1.507 1.229 1.543 2.187 1.875 2.63 1.445.444-.43-1.123-1-.346-1.418.778-.418 1.498-.009 2.922 1.586M105.698 122.149c-.156.03-.326-.037-.451-.196-.2-.255-.21-.649-.024-.883.06-.076 1.544-1.896 6.345-4.263.249-.122.544.04.66.364.117.324.01.686-.239.808-4.586 2.26-6.027 3.997-6.04 4.014a.427.427 0 0 1-.251.156" fill="#42947C"/>
        <path d="M120.37 118.442c1.872 1.168 2.644-.4 1.949-.853-.695-.453-.688-.845.118-1.317.806-.471 3.268 1.299 3.796.638.528-.661-.614-.652-.713-1.197-.1-.544.557-.805 2.659-1.354 2.663-.695 1.983-1.527 1.983-1.527s-.492-1.138-2.778-.275c-1.995.754-2.806.62-3.141.134-.335-.485.597-.99-.337-1.29-.933-.298-1.574 2.243-2.588 2.223-1.013-.02-1.32-.335-1.102-1.014.216-.679-1.608-1.603-2.231.184-.624 1.788-1.151 2.31-2.178 2.048-1.026-.261.29-1.091-.397-1.423-.688-.333-1.502.157-1.952 1.86-.34 1.286-1.94 1.854-2.699 2.054-.22.058-.334.253-.255.439.078.186.32.292.542.24.768-.179 2.498-.438 3.758.452 1.666 1.177 2.7 1.208 3.003.63.303-.578-1.398-.66-.766-1.332.631-.673 1.458-.487 3.33.68M108.92 124.821c-.136-.063-.23-.223-.237-.444-.01-.352.201-.725.475-.834.09-.036 2.252-.867 7.275-.28.26.03.397.354.305.722-.092.368-.377.642-.637.612-4.798-.56-6.88.217-6.9.225a.354.354 0 0 1-.28 0" fill="#42947C"/>
        <path d="M122.767 129.129c.926 1.904 2.395 1.122 2.061.4-.333-.721-.12-1.018.796-.942.916.075 2.01 2.758 2.797 2.538.787-.22-.16-.83.046-1.3.206-.47.887-.314 2.914.402 2.567.907 2.447-.096 2.447-.096s.198-1.136-2.147-1.711c-2.048-.502-2.646-1.042-2.666-1.595-.019-.552 1.019-.435.407-1.167-.613-.733-2.49.863-3.317.3-.826-.562-.912-.969-.372-1.37.539-.403-.478-2.094-1.94-1.065-1.463 1.03-2.176 1.143-2.885.389-.709-.755.819-.678.427-1.304-.39-.625-1.324-.69-2.598.367-.964.8-2.586.37-3.319.113-.212-.074-.41.013-.443.197-.034.185.109.397.32.477.73.278 2.295 1.015 2.863 2.376.752 1.8 1.59 2.383 2.146 2.104.557-.279-.804-1.26.074-1.433.879-.173 1.462.416 2.389 2.32" fill="#42947C"/>
        <path d="m64.67 128.206.158.327c-.18 2.234 7.298 1.574 8.958 1.529l28.752.178c7.314-.614 7.941-5.814 7.941-5.814-.09-4.207-4.174-9.578-8.46-8.39l-27.74 7.691c-1.685.468-9.42 2.14-9.608 4.479" fill="#F7AE25"/>
        <path d="M94.192 125.898c-.15.148-.18.39-.052.642.428.843.54 1.66.283 2.083a.473.473 0 0 1-.449.245c-.41-.01-.648.288-.53.667.117.379.545.694.956.704.64.016 1.151-.237 1.44-.71.447-.738.33-1.934-.313-3.2-.19-.374-.654-.63-1.037-.572a.53.53 0 0 0-.298.14M83.669 121.397c-.246.22-.15.624.216.9.614.466.917 1.138.662 1.467-.197.254-.038.66.355.906.394.246.872.24 1.069-.014.615-.794.09-2.181-1.197-3.157-.365-.277-.86-.322-1.105-.102M73.188 128.586c-.11.12-.148.305-.084.512.21.674.018.734-.045.755-.312.099-.398.461-.193.809.206.348.626.55.938.45.414-.13 1.041-.566.591-2.014-.112-.361-.492-.655-.849-.655a.474.474 0 0 0-.358.143M101.62 116.018c-.183.192-.163.533.07.825.984 1.238 1.27 2.303.897 3.352-.112.314.109.738.493.948.384.21.786.124.897-.19.514-1.445.102-3.024-1.224-4.693-.271-.34-.73-.487-1.023-.327a.446.446 0 0 0-.11.085" fill="#EF8432"/>
        <path d="M38.568 86.738c-.124.327-.419.477-.656.333l-.825-.499c-.237-.143-.33-.528-.206-.855.124-.327.419-.477.656-.333l.825.499c.237.143.33.528.206.855" fill="#9E572A"/>
        <path d="M28.769 83.475c.39 3.38 8.649 3.65 8.649 3.65l.307-.98-5.256-3.461s-4.09-2.588-3.7.791M31.575 67.673c.438-.413.932-.398 1.295-.03.473-.078.924.278 1.136.983.294.983.06 2.392-.58 2.994-.279.263-.61.262-.908.206a2.34 2.34 0 0 1-.788-.313c-.867-.536-.919-.41-1.115-1.064-.295-.982.32-2.174.96-2.776" fill="#9E572A"/>
        <path d="M32.335 68.15c-.607.714-.606 1.752-1.534 1.878 0 0-1.788.375-.925-1.435 1.076-2.251 2.274-.718 2.274-.718l.185.274z" fill="#522F1D"/>
        <path d="M31.761 67.833c1.097-.129.607.845 3.183 1.329.173-.17.072-.908-.185-1.202-.535-.614-.801-.94-1.483-1.264l-.17-.06c-1.03-.37-1.702-.136-2.205.74-.044.078-.336.407-.362.475l.37-.02c-.21.54.266-.225.852.002" fill="#522F1D"/>
        <path d="M32.604 71.856c.236-.008.517-.41.63-.898l-.853.028c-.112.488-.012.878.223.87" fill="#FFF"/>
        <path d="M30.562 69.468a.45.45 0 1 0 .852.286.45.45 0 0 0-.852-.286" fill="#9E572A"/>
    </g>
</svg>
