<svg width="24" height="22" viewBox="0 0 24 22" xmlns="http://www.w3.org/2000/svg">
    <path d="M24 6.965c0 5.995-3.284 11.03-8.217 12.661-.94.372-1.961.584-3.033.584-3.042 0-5.868-1.711-7.298-4.428-2.537 2.34-3.22 5.015-3.233 5.067a1.125 1.125 0 1 1-2.188-.525C.481 18.472 4.272 9.71 15.748 9.71a.751.751 0 0 0 .752-.75.752.752 0 0 0-.75-.75c-5.034 0-8.672 1.623-11.236 3.545.009-.508.058-1.024.165-1.55.632-3.084 3.096-5.578 6.16-6.29a8.246 8.246 0 0 1 3.793 0c2.625.624 5.54-.348 6.999-2.871.265-.46.938-.446 1.156.039C23.564 2.81 24 4.926 24 6.965z" fill="#00B091" fill-rule="nonzero"/>
</svg>
