<?xml version="1.0" encoding="UTF-8" standalone="no"?>
<!DOCTYPE svg PUBLIC "-//W3C//DTD SVG 1.1//EN" "http://www.w3.org/Graphics/SVG/1.1/DTD/svg11.dtd">
<svg width="100%" height="100%" viewBox="0 0 24 24" version="1.1" xmlns="http://www.w3.org/2000/svg" xmlns:xlink="http://www.w3.org/1999/xlink" xml:space="preserve" xmlns:serif="http://www.serif.com/" style="fill-rule:evenodd;clip-rule:evenodd;stroke-linejoin:round;stroke-miterlimit:2;">
    <g>
        <path d="M23.567,11.144L13.328,0.588C12.955,0.212 12.446,-0 11.916,-0C11.386,-0 10.876,0.213 10.503,0.59L0.432,11.146C-0.451,12.039 0.11,13.688 1.295,13.688L2.732,13.688L2.732,20.938C2.732,22.605 3.93,23.957 5.409,23.957L8.897,23.957C8.894,23.919 8.886,23.883 8.886,23.845L8.886,18.95C8.886,18.025 9.635,17.275 10.56,17.275L13.44,17.275C14.365,17.275 15.115,18.025 15.115,18.95L15.115,23.845C15.115,23.883 15.105,23.919 15.104,23.957L18.554,23.957C20.032,23.957 21.231,22.605 21.231,20.937L21.231,13.688L22.705,13.688C23.892,13.688 24.451,12.036 23.567,11.144" style="fill:rgb(0,79,89);"/>
    </g>
</svg>
