<svg width="318" height="147" viewBox="0 0 318 147" xmlns="http://www.w3.org/2000/svg" xmlns:xlink="http://www.w3.org/1999/xlink">
    <defs>
        <path id="otlllzjzxa" d="M0 0h64.356v38.46H0z"/>
        <path id="qq20pq5pcc" d="M0 147h318V0H0z"/>
    </defs>
    <g fill="none" fill-rule="evenodd">
        <path d="M104.68 64.22c4.206.135 17.13 2.893 26.167 9.898 9.038 7.003 20.93 20.119 24.49 34.06 3.56 13.94.992 32.831-4.035 37.776-3.946.103-119.414 0-126.89.103-5.852-1.182-12.398-4.186-10.867-19.488 1.53-15.302 13.386-33.16 24.94-42.168C50.04 75.393 73.655 65.816 86.671 65c13.015-.814 18.009-.781 18.009-.781" fill="#00B091"/>
        <path d="M31.379 117.06c-12.471-.606-17.663 12.85-17.663 12.85M81.73 66.15c.312 3.002 4.88 7.039 14.434 6.417 9.553-.62 13.499-4.657 14.122-6.727M53.798 82.4c4.05 6.522 8.514 25.67 8.722 28.361M149.017 118.938c-4.88-1.138-20.663-2.898-34.785-1.656" stroke="#004F59" stroke-width=".7" stroke-linecap="round" stroke-linejoin="round"/>
        <path d="M125.238 79.916c-4.153 9.523-6.23 33.33-6.541 37.056" stroke="#292F44" stroke-width=".7" stroke-linecap="round" stroke-linejoin="round"/>
        <path d="M96.178 16.867c.7.048 2.522-1.46 4.507-1.946 1.985-.486 4.844-.055 5.331 1.924.487 1.979.147 3.512 1.063 3.808.916.297 2.679-.36 4.544-.231 1.864.129 3.276 1.16 3.752 3.293.477 2.134-.44 4.094-1.193 4.82-.753.727-1.75 1.592-1.726 2.372.024.78 1.653 2.06 1.508 4.15-.145 2.091-1.51 4.876-4.489 5.06-2.98.183-21.767 9.938-21.767 9.938s-.157 4.502-5.477 4.68c-5.32.178-6.269-1.91-6.044-2.907.226-.996 2.115-2.344 1.357-3.797-.758-1.453-3.297-3.107-4.706-7.562-1.408-4.454 2.7-8.529 4.661-9.794 1.962-1.265 1.858-5.397 1.819-8.201-.04-2.804 2.37-7.151 7.972-8.01s7.024 2.274 8.888 2.403" fill="#004F59"/>
        <path d="M88.62 38.42s.022-3.32-.25-5.413c-.27-2.094-4.118-2.152-5.661-.91-1.543 1.243-2.877 3.952-1.909 6.51.968 2.556 3.536 3.044 3.536 3.044s.985 3.804 1.28 7.04c.297 3.237.256 11.327.173 14.019-.083 2.692-1.012 4.08-1.012 4.08s4.521 3.84 11.852 3.204c7.33-.636 11.02-4.324 11.02-4.324s-1.27-2.681-1.53-6.435c-.26-3.753-.42-8.951-.42-8.951s2.483-1.282 3.33-5.996c.848-4.714 1.364-10.644-.259-14.258-1.623-3.614-4.711-5.227-7.32-5.874-2.61-.647-4.025-.511-4.025-.511s-3.719 1.845-4.997 5.647c-1.28 3.803-1.588 7.127-1.417 9.162l-2.391-.035z" fill="#D18752"/>
        <path d="M105.195 34.297c.78 1.143 2.995 4.097 2.796 4.706-.198.609-3.024-.287-3.024-.287M98.584 40.689c.53-.836 5.195.514 6.339.904 1.144.39 1.856 1.373.854 2.315-1.002.943-2.993 1.506-4.98.902-1.827-.555-2.826-3.152-2.213-4.121z" stroke="#004F59" stroke-width=".7" stroke-linecap="round" stroke-linejoin="round"/>
        <path d="M95.63 29.28c1.12-.39 3.576-.921 5.636-.235M105.995 29.527c1.12-.39 2.719.188 3.37.933" stroke="#004F59" stroke-width=".849" stroke-linecap="round" stroke-linejoin="round"/>
        <path d="M105.699 50.284c-2.466 2.164-5.96 3.013-9.14 2.715-3.18-.297-6.679-1.627-7.568-2.311" stroke="#004F59" stroke-width=".7" stroke-linecap="round" stroke-linejoin="round"/>
        <path d="M99.375 34.929c-.362-.025-.527-.306-.49-.834.036-.528.239-.784.6-.759.361.025.527.306.49.834-.036.528-.239.784-.6.759M108.165 35.38c-.362-.025-.527-.307-.49-.834.036-.528.239-.784.6-.76.361.026.527.307.49.835-.036.528-.239.783-.6.758" fill="#004F59"/>
        <path d="M113.293 145.436H78.048a2.552 2.552 0 0 1-2.548-2.54v-46.31a2.552 2.552 0 0 1 2.548-2.54h35.245a2.552 2.552 0 0 1 2.548 2.54v46.31a2.552 2.552 0 0 1-2.548 2.54" fill="#FFF"/>
        <path d="M113.293 145.436H78.048a2.552 2.552 0 0 1-2.548-2.54v-46.31a2.552 2.552 0 0 1 2.548-2.54h35.245a2.552 2.552 0 0 1 2.548 2.54v46.31a2.552 2.552 0 0 1-2.548 2.54z" stroke="#004F59" stroke-width="1.698"/>
        <g transform="translate(15.486 108.54)">
            <mask id="6xqp5lqoib" fill="#fff">
                <use xlink:href="#otlllzjzxa"/>
            </mask>
            <path d="M15.892 8.52c2.883-1.046 18.063-1.555 18.063-1.555S40.402 1.807 46.735.53C53.07-.744 59.232.46 61.922 2.201c2.69 1.742 2.764 5.17 2.056 6.367-.707 1.196-2.214 2.649-2.214 2.649s2.08 1.544 1.607 3.846c-.472 2.302-2.942 4.154-2.942 4.154s3.354 1.166 2.672 4.231c-.68 3.066-2.877 3.226-3.82 3.316-.944.09-3.944-1.672-3.944-1.672s-1.576 4.715-3.999 8.128c-2.423 3.412-3.44 4.587-5.949 4.726-2.507.138-30.67.997-36.387.136C3.284 37.221 0 32.792 0 32.792s.993-7.557 4.863-13.827c3.87-6.27 11.03-10.444 11.03-10.444" fill="#D18752" mask="url(#6xqp5lqoib)"/>
        </g>
        <mask id="pzlkmvhxld" fill="#fff">
            <use xlink:href="#qq20pq5pcc"/>
        </mask>
        <path d="M212.592 23.043s-7.27-2.439-10.787 1.424c-3.517 3.863-3.315 6.536-4.415 8.143-1.1 1.607-5.702 3.802-7.05 6.32-1.348 2.518-1.672 5.763-2.834 7.988-1.162 2.225-4.463 3.925-6.648 5.424-2.185 1.5-3.61 4.79-3.872 7.416-.263 2.627-.263 4.187-2.603 5.67-2.34 1.485-3.253 5.919-1.687 9.039s75.493 1.11 75.493 1.11 3.006-5.007 2.12-10.244c-.884-5.237-3.674-7.075-5.44-8.187-1.768-1.112-.234-3.924-2.39-5.854-2.154-1.93-3.239-2.039-2.573-4 .666-1.963 1.517-5.779-.994-8.837-2.511-3.059-6.758-2.857-7.967-4.85-1.21-1.992-1.082-5.536-5.835-8.953-6.717-4.829-12.518-1.609-12.518-1.609" fill="#D95E17" mask="url(#pzlkmvhxld)"/>
        <path d="M228.014 28.997c1.603 2.76 3.773 5.057 6.542 5.54 2.77.483 6.18 2.903 6.645 5.55.466 2.646-.03 5.51-.928 8.229-.898 2.719 1.49 4.933 4.3 6.044 2.81 1.112 8.442 3.233 9.797 7.424 1.354 4.191-1.166 7.478-2.581 9.105-1.415 1.628.073 4.48 2.884 5.592 2.81 1.112 2.605 5.252.219 7.2M197.452 33.032c-2.086 2.08-5.413 1.958-7.149 3.658-1.735 1.7-3.088 3.75-3.284 6.747-.195 2.997-.763 4.5-3.677 5.46-2.913.958-6.054.021-8.606 2.576-2.551 2.555-2.53 5.47-1.91 7.612.621 2.142.529 5.15-1.858 6.056-2.386.907-6.157 2.093-6.508 5.595-.35 3.501 1.707 6.93 4.331 7.816" stroke="#D95E17" stroke-width=".7" stroke-linecap="round" stroke-linejoin="round" mask="url(#pzlkmvhxld)"/>
        <path d="M220.615 63.317c9.903 1.14 23.775 3.3 28.891 10.05 5.116 6.75 9.838 16.55 11.501 31.236 1.635 14.439 4.205 26.316-1.869 34.416-6.922 9.23-19.917 6.468-26.193 6.624-6.277.156-48.565.673-55.865.104-7.3-.57-19.937-2.07-21.248-16.942-1.164-13.197 1.234-21.721 5.307-34.267 4.073-12.546 9.34-19.823 16.64-23.935 7.298-4.11 27.492-7.252 27.492-7.252l15.344-.034z" fill="#39F" mask="url(#pzlkmvhxld)"/>
        <path d="M192.11 113.97c-4.608-.49-20.196-.31-25.025-.103" stroke="#004F59" stroke-width=".7" stroke-linecap="round" stroke-linejoin="round" mask="url(#pzlkmvhxld)"/>
        <path d="M189.203 86.903c0 6.831-.78 26.808-.78 26.808M237.591 86.748c-1.453 8.28-2.076 29.913-2.076 29.913" stroke="#004F59" stroke-width=".7" stroke-linecap="round" stroke-linejoin="round" mask="url(#pzlkmvhxld)"/>
        <path d="M251.194 116.868c-5.192-.103-20.352-.31-22.74-.31" stroke="#004F59" stroke-width=".7" stroke-linecap="round" stroke-linejoin="round" mask="url(#pzlkmvhxld)"/>
        <path d="M210.904 27.4s-1.146 3.63-4.462 7.046c-3.316 3.415-6.895 6.336-6.895 6.336s-1.13 5.036-.696 8.512c.435 3.476 5.643 6.178 6.883 6.302l-1.113 9.563 9.242 20.267 8.55-21.307-1.798-.802 2.337-12.406s.775 1.637 3.905.076 4.215-4.574 2.494-6.15c-1.72-1.575-5.966 1.748-5.966 1.748s-1.18-3.862-2.28-5.376c-1.1-1.514-3.845-3.815-5.473-6.317-1.627-2.503-4.728-7.492-4.728-7.492" fill="#E8D6BC" mask="url(#pzlkmvhxld)"/>
        <path d="M206.9 34.57c.294.965.96 3.684.248 5.33-.712 1.645-2.634 2.858-2.672 3.244-.039.386 3.301.64 3.301.64M211.62 40.578c.503-1.12 1.223-2.843 3.238-2.643 2.015.2 3.108 1.792 3.256 2.664" stroke="#D95E17" stroke-width=".7" stroke-linecap="round" stroke-linejoin="round" mask="url(#pzlkmvhxld)"/>
        <path d="M206.505 39.29c-.31-.812-1-1.739-2.573-1.661-1.573.078-2.154 1.97-2.154 1.97" stroke="#D95E17" stroke-width=".7" stroke-linecap="round" stroke-linejoin="round" mask="url(#pzlkmvhxld)"/>
        <path d="M207.034 46.52c1.681-.38 5.037-1.06 5.037-1.06" stroke="#D95E17" stroke-width="1.061" stroke-linecap="round" stroke-linejoin="round" mask="url(#pzlkmvhxld)"/>
        <path d="M205.734 55.596c3.061.694 6.571.029 7.896-.697" stroke="#D95E17" stroke-width=".7" stroke-linecap="round" stroke-linejoin="round" mask="url(#pzlkmvhxld)"/>
        <path d="M222.34 145.669h-17.366a4.55 4.55 0 0 1-4.557-4.542v-32.923c0-.574.467-1.04 1.043-1.04h24.393c.576 0 1.043.466 1.043 1.04v32.923a4.55 4.55 0 0 1-4.556 4.542" fill="#F4C443" mask="url(#pzlkmvhxld)"/>
        <path d="m194.962 113.972 5.455.101v4.58s2.032.277 6.255.306c4.223.03 6.106-.017 8.524.068 2.418.084 4.658 1.165 4.589 4.2-.07 3.036-3.967 3.663-3.967 3.663s5.339-.951 5.874 1.52c.536 2.472-.448 5.26-4.617 6.25 0 0 2.534-.294 2.69 2.062.155 2.356-.844 4.52-4.501 5.872-3.658 1.353-11.965 2.842-18.04 2.997-2.458.063-7.067-.032-7.067-.032s-2.566-5.638-2.39-14.437c.176-8.798 4.149-17.219 4.149-17.219l3.046.07z" fill="#E8D6BC" mask="url(#pzlkmvhxld)"/>
        <path d="M226.74 137.446v-4.67c3.69 0 6.693-2.992 6.693-6.67s-3.003-6.67-6.693-6.67v-4.67c6.273 0 11.376 5.088 11.376 11.34 0 6.253-5.103 11.34-11.376 11.34" fill="#F4C443" mask="url(#pzlkmvhxld)"/>
        <path d="M202.286 65.322c.156 1.863 7.788 18.476 9.034 20.805 1.246 2.329 2.181 3.726 3.427 3.416 1.246-.311 2.804-5.59 4.517-10.092 1.713-4.503 4.828-13.353 5.296-14.595" stroke="#004F59" stroke-width=".7" stroke-linecap="round" stroke-linejoin="round" mask="url(#pzlkmvhxld)"/>
        <path stroke="#94C7D4" stroke-width=".849" stroke-linecap="round" stroke-linejoin="round" mask="url(#pzlkmvhxld)" d="M.425 146.057h283.478"/>
        <path d="M156.426 65.326c0 2.214-.688 4.078-2.06 5.591-1.374 1.514-3.17 2.272-5.39 2.272-2.222 0-4.019-.758-5.39-2.272-1.374-1.513-2.06-3.377-2.06-5.591 0-2.154.686-4.02 2.06-5.592 1.371-1.573 3.168-2.359 5.39-2.359 2.22 0 4.016.786 5.39 2.36 1.372 1.572 2.06 3.437 2.06 5.59zm-2.279-13.717h-11.57v-3.67c0-3.086.526-5.635 1.578-7.644 1.051-2.01 2.542-3.917 4.47-5.723l1.49-1.573a18.976 18.976 0 0 0 2.147-2.752c.614-.961.92-2.053.92-3.277 0-1.863-.38-3.333-1.139-4.412-.76-1.077-1.987-1.616-3.681-1.616-.994 0-1.84.234-2.542.699a5.753 5.753 0 0 0-1.71 1.747c-.437.7-.788 1.457-1.05 2.272-.264.816-.425 1.573-.483 2.272l-11.482-2.01a25.088 25.088 0 0 1 1.71-6.465 17.643 17.643 0 0 1 3.505-5.417c1.49-1.573 3.287-2.825 5.39-3.757 2.104-.931 4.587-1.398 7.45-1.398 5.142 0 9.248 1.485 12.316 4.456 3.067 2.97 4.601 7.194 4.601 12.669 0 1.864-.205 3.524-.613 4.98a17.65 17.65 0 0 1-1.666 4.019 19.104 19.104 0 0 1-2.542 3.45 38.84 38.84 0 0 1-3.33 3.19c-1.52 1.34-2.528 2.577-3.024 3.713-.497 1.135-.745 2.403-.745 3.8v2.447z" fill="#59E5BF" mask="url(#pzlkmvhxld)"/>
        <path d="M100 134.525c0 1.26-.415 2.32-1.244 3.182-.83.862-1.915 1.293-3.256 1.293-1.342 0-2.427-.431-3.256-1.293-.83-.861-1.244-1.922-1.244-3.182 0-1.226.414-2.287 1.244-3.182.829-.895 1.914-1.343 3.256-1.343 1.34 0 2.426.448 3.256 1.343.829.895 1.244 1.956 1.244 3.182zM98.183 127h-6.617v-2.147c0-1.806.301-3.298.903-4.474.601-1.175 1.453-2.291 2.556-3.348l.852-.92c.468-.512.877-1.048 1.228-1.61.351-.563.527-1.202.527-1.918 0-1.09-.218-1.95-.652-2.582-.435-.63-1.136-.946-2.105-.946-.569 0-1.053.137-1.454.41a3.332 3.332 0 0 0-.977 1.022 5.97 5.97 0 0 0-.602 1.329c-.15.478-.243.92-.276 1.33L85 111.968c.167-1.329.493-2.59.977-3.783a10.352 10.352 0 0 1 2.005-3.17 9.485 9.485 0 0 1 3.083-2.198c1.203-.545 2.623-.818 4.26-.818 2.941 0 5.289.87 7.043 2.607 1.755 1.739 2.632 4.21 2.632 7.414 0 1.09-.118 2.062-.35 2.914a10.463 10.463 0 0 1-.953 2.351c-.401.716-.886 1.39-1.454 2.02a22.444 22.444 0 0 1-1.905 1.866c-.87.784-1.445 1.508-1.729 2.173-.284.664-.426 1.406-.426 2.224V127z" fill="#D95E17" mask="url(#pzlkmvhxld)"/>
        <path d="M273.705 94.667c.65-5.363 5.685-8.214 9.69-6.546 4.005 1.668 9.707 2.58 12.377-3.277 2.67-5.856 6.913-7.746 11.882-5.29 4.969 2.457 8.599.333 9.922-4.213" stroke="#D95E17" stroke-width=".849" stroke-linecap="round" stroke-linejoin="round" mask="url(#pzlkmvhxld)"/>
        <path stroke="#00B091" stroke-width=".849" stroke-linecap="round" stroke-linejoin="round" mask="url(#pzlkmvhxld)" d="m55.563 20.918 12.149 6.521M81.419.423l2.492 9.626M120.669 1.044l-5.295 11.179M273.935 115.626l1.869 8.384s15.264-6.21 15.264-7.763c0-1.552-17.133-.62-17.133-.62zM265.212 69.98c-.311-4.968 4.362-12.421 10.28-11.8 5.92.621 4.673 4.968 1.558 6.21s-7.788-1.242-8.1-8.073c-.31-6.832 9.346-10.558 9.346-10.558M248.391 14.397l-6.231 9.005M186.711 11.292l5.918 8.073"/>
        <path d="M2.637 73.322c3.175-4.798 8.487-1.515 12.182 2.385 4.106 4.333 6.861-1.467 9.21-6.084 2.35-4.618 7.479-7.831 12.571-4.676 5.093 3.154.64 9.902-1.81 11.857-2.45 1.954-9.32 5.157-6.205 8.764 3.115 3.607 8.882.57 10.48 5.443 1.599 4.872-3.406 6.696-6.652 5.635-3.246-1.06-6.991-6.291-9.432-6.073-2.44.217-1.845 7.92-6.862 11.77-2.88 2.211-8.31.88-8.743-4.565-.433-5.444 6.204-8.474 6.513-11.656.206-2.125-2.943-3.375-6.538-4.321-3.024-.796-7.233-4.672-4.714-8.479z" stroke="#D95E17" stroke-width=".849" stroke-linecap="round" stroke-linejoin="round" mask="url(#pzlkmvhxld)"/>
    </g>
</svg>
