<svg width="336" height="211" viewBox="0 0 336 211" xmlns="http://www.w3.org/2000/svg" xmlns:xlink="http://www.w3.org/1999/xlink">
    <defs>
        <path id="ef5sh01j8a" d="M0 0h33v25H0z"/>
        <path id="avy1sorjwc" d="M0 0h94v101H0z"/>
        <path id="rxmnqzbabe" d="M0 0h109v82H0z"/>
    </defs>
    <g fill="none" fill-rule="evenodd">
        <path d="M207.157 50.94s11.093 2.304 17.194 5.806c6.102 3.503 16.548 10.692 19.506 23.226 2.958 12.535 3.143 89.402 3.143 89.402s-18.489 4.608-28.102-7.558c-9.615-12.166-10.724-27.466-10.724-27.466l-17.472.554s1.387 16.774-3.235 25.99c-4.622 9.217-18.858 11.982-37.532 10.876l.74-27.281s-18.859-6.267-18.674-32.811c.185-26.544 11.093-42.581 19.413-49.77 8.32-7.19 28.226-14.378 31.986-14.87 3.759-.491 23.757 3.902 23.757 3.902" fill="#004F59"/>
        <path d="M185.089 41 182 47.905s3.135 24.674 4.979 37.563C188.823 98.358 190.62 135 190.62 135l17.379-.552s-2.028-34.433-2.028-49.164c0-14.73 1.66-33.328 1.66-33.328L205.51 43.9 185.089 41z" fill="#F4F9FB"/>
        <path d="m192 45-6.188 6s-1.687-1.768-3.812-4.105M200 46l4.321 7s2.044-.752 3.679-2.025" stroke="#004F59" stroke-width=".5" stroke-linecap="round" stroke-linejoin="round"/>
        <path d="M174.006 50s-.125 6.516.75 11.066l5.997.368L175.88 65s2.374 8.238 5.748 16.598C185 89.96 188 95 188 95M213.546 53c.97 3.054 1.454 9.038 1.454 9.038l-4.727 1.832 4.363 1.954s-1.09 11.604-2.787 19.542C210.151 93.306 207 101 207 101" stroke="#59E5BF" stroke-width=".5" stroke-linecap="round" stroke-linejoin="round"/>
        <g transform="translate(183)">
            <mask id="b5vcw3aqrb" fill="#fff">
                <use xlink:href="#ef5sh01j8a"/>
            </mask>
            <path d="M.08 17.028c-.269-2.135.06-5.174 2.239-7.68C3.8 7.643 6.427 7.92 6.427 7.92s-.379-3.18 2.565-5.365 7.155.407 10.808-.08c3.652-.488 4.307-1.212 5.66-1.978 1.351-.765 2.75-.755 2.612.81-.139 1.563-2.026 3.503-2.026 3.503s2.595-1.02 3.652-2.043c1.057-1.022 3.18-.597 2.47 1.549-.709 2.146-4.57 4.567-4.57 4.567s2.084-.213 3.455-.659c1.371-.446 2.808.852 1.31 3.172-.767 1.189-3.055 3.427-7.696 5.299C20.065 18.55 3.032 25 3.032 25L.013 20.555l.067-3.527z" fill="#00B091" mask="url(#b5vcw3aqrb)"/>
        </g>
        <path d="M208.759 17.482s-1.212-3.968-1.824-4.896c-.612-.928-4.187-.213-8.177-.254-3.99-.04-7.786-.69-8.444-.055 0 0-.45 3.331-1.807 5.43-1.358 2.1-2.122 4.057-2.027 4.877l-1.155-1.217-.907-2.762-1.245-1.686s-2.321.733-3.016 3.849c-.694 3.116 1.031 5.585 2.766 6.676 1.735 1.091 2.928.884 2.928.884s.475 10.09-.41 12.344c0 0 4.892 4.003 8.12 5.623l.82 15.705 3.423-15.438c2.837-1.145 7.635-3.23 7.635-3.23l-.625-6.572s2.858-1.82 3.927-5.646c.878-3.143 1.03-4.467 1.03-4.467s3.304-1.218 3.228-4.962c-.095-4.676-4.24-4.203-4.24-4.203" fill="#B78664"/>
        <path d="M194.993 21.068c-.04.66-.228.973-.555.928-.327-.046-.472-.405-.431-1.064.04-.66.228-.973.555-.928.327.045.472.404.431 1.064M205.993 22.068c-.04.66-.228.973-.555.928-.327-.046-.472-.404-.431-1.064.04-.66.228-.973.555-.928.327.046.472.404.431 1.064" fill="#004F59"/>
        <path d="M192 17.634c1.512-1.176 4.097-.516 5 .366M202 18.524c1.395-.673 3.462-.873 5 .476" stroke="#004F59" stroke-width=".877" stroke-linecap="round" stroke-linejoin="round"/>
        <path d="M194.044 27.468c.5-1.015 3.515-.065 5.685-.049 2.17.016 3.817-.664 4.214.33.396.994-1.259 3.177-4.918 3.25-3.66.073-5.325-2.832-4.98-3.531z" stroke="#004F59" stroke-width=".5"/>
        <path fill="#004F59" d="m191.935 127.612 1.065 1.059L180.593 140 169 112.61l6.266-3.61z"/>
        <path d="m181.74 105-6.74 4.661s4.946 6.318 7.976 9.814c3.03 3.496 8.47 8.525 8.47 8.525l6.554-5.704L181.74 105z" fill="#E6F2F5"/>
        <path d="M182 104.809s4.775-4.268 9.612-7.986c4.837-3.72 7.07-5.121 9.364-7.316 2.295-2.194 3.597-4.938 4.465-4.45.868.488 1.922 2.621 1.364 4.511-.558 1.89-1.426 2.682-1.426 2.682s3.473 0 5.395.183c1.923.183 2.79 1.098 2.667 2.927-.124 1.828-2.17 2.56-2.17 2.56s2.79-.122 2.728 2.317c-.062 2.438-2.419 3.048-2.419 3.048s1.489.548 1.055 2.865c-.435 2.316-2.047 2.5-2.047 2.5s2.853-.245 2.109 2.499c-.744 2.743-5.395 3.353-6.078 3.84-.682.488-8.31 7.011-8.31 7.011s-4.216-3.597-8.31-8.169c-4.092-4.572-7.999-9.022-7.999-9.022" fill="#B78664"/>
        <path d="M220 81c0 3.314-5.373 6-12 6s-12-2.686-12-6h24z" fill="#F9CE5D"/>
        <path d="M196.842 74s-1.266 3.206-.693 7.183C196.716 85.121 201.455 87 208 87c6.545 0 11.28-2.12 11.851-5.817.573-3.71-.693-7.183-.693-7.183h-22.316zM205 87c1.011 1.674 1.71 3.342 2 5M210 87c-.943 1.473-1.663 3.102-2 5" stroke="#FFF" stroke-width=".5" stroke-linecap="round" stroke-linejoin="round"/>
        <path d="M174 110c-4.96 3.03-18.722 10.732-23 15" stroke="#59E5BF" stroke-width=".5" stroke-linecap="round" stroke-linejoin="round"/>
        <path d="M167 80c-.572 5.692-4 37-4 37M151 120c2.311-.563 8-1 8-1M151 144.695c5.433 1.936 13.077 4.242 21.917-.461C181.758 139.53 190 131 190 131M224.119 85c-.53 8.716.881 48 .881 48" stroke="#59E5BF" stroke-width=".5" stroke-linecap="round" stroke-linejoin="round"/>
        <path d="M227 87c-1.615 3.5-2.885 5.574-3 7" stroke="#59E5BF" stroke-width=".5" stroke-linecap="round" stroke-linejoin="round"/>
        <path d="M243.62 75.15c-1.352 2.958-3.534 11.125 1.721 22.59 5.256 11.464 5.01 19.57 12.54 28.199 5.162 5.917 11.247 9.061 11.247 9.061l5.071-26.258s5.256 7.951 15.95 12.636c10.695 4.684 26.8.246 36.142-9.739 9.343-9.985 10.491-21.256 9.343-32.545C334.404 67.013 325.922 59 325.922 59s-4.18 9.246-11.801 14.547c-7.622 5.3-16.596 7.52-25.447 3.575-8.85-3.945-14.075-9.74-20.713-11.958-6.639-2.22-12.205-1.894-17.088 1.11-4.61 2.835-5.9 5.917-7.253 8.875" fill="#FFDB33"/>
        <path d="M281 110.575 277.644 106s-4.6 5.07-7.21 8.285c-2.61 3.215-3.977 4.946-4.35 7.543-.373 2.597.621 7.172.621 7.172L281 110.575z" fill="#39F"/>
        <g transform="translate(226 110)">
            <mask id="hpn2k2ubgd" fill="#fff">
                <use xlink:href="#avy1sorjwc"/>
            </mask>
            <path d="M43.755 8.926c-3.762 5.085-7.787 17.544-9.64 32.687-1.855 15.143-1.67 28.808-1.67 28.808l-9.64-11.45L0 75.962s8.343 12.189 22.063 20.13c13.72 7.94 24.937 4.986 30.777 0 0 0 11.624 1.258 23.176-1.847C87.696 91.104 94 85.01 94 85.01s-7.602-19.205-13.164-35.826c-5.562-16.62-8.188-28.626-15.017-37.673C59.824 3.571 53.953 0 53.953 0s-5.006 1.908-10.198 8.926" fill="#39F" mask="url(#hpn2k2ubgd)"/>
        </g>
        <path d="M271.424 95.325c-3.288-7.553-5.318-9.494-7.182-11.738 0 0 1.91-1.648 1.455-5.953-.455-4.304-4.864-4.442-6.364-2.198-1.742 2.606-.728 5.266-.728 5.266s-2.727.824-6.09.916c-3.364.092-6.486-.397-6.486-.397-.128 2.08.092 5.189 2.22 9.02-.318 1.47-1.077 2.69-.862 3.123.151.306 1.542-.172 2.522-.555 3.388 4.446 8.25 5.052 10.545 4.104 0 0 2.182 4.273 3.879 8.914 1.697 4.64 3.394 11.173 3.394 11.173s4.424-6.045 9.273-10.99c0 0-2.546-3.725-5.576-10.685" fill="#F7EAE1"/>
        <path d="M253.352 96c.158-.514.394-1.358.554-2.596.237-1.839-.032-2.292-.178-2.38-.217-.13-.54.275-.883.794A14.436 14.436 0 0 1 251 94.01M249 88.323c.863.578 1.957.896 2.564.503.863-.559.178-1.826.178-1.826" stroke="#004F59" stroke-width=".5" stroke-linecap="round" stroke-linejoin="round"/>
        <path d="M247 86c.608-.96 2.202-1.9 4-2" stroke="#004F59" stroke-width=".658" stroke-linecap="round" stroke-linejoin="round"/>
        <path d="M279 206c6.676-5.852 10.646-20.118 11.909-35.48 1.262-15.364 1.082-26.52 1.082-26.52M296 146c-.187 1.869-3 6-3 6M259 180c3.818 4.406 7.727 9.937 9 12" stroke="#004F59" stroke-width=".5" stroke-linecap="round" stroke-linejoin="round"/>
        <path d="M265 189c2 .7 4 2 4 2" stroke="#004F59" stroke-width=".5" stroke-linecap="round" stroke-linejoin="round"/>
        <path d="M217 109c0 3.314-5.373 6-12 6s-12-2.686-12-6h24z" fill="#F9CE5D"/>
        <path d="M193.842 102s-1.266 3.206-.693 7.183c.567 3.938 5.306 5.817 11.851 5.817 6.545 0 11.28-2.12 11.851-5.817.573-3.71-.693-7.183-.693-7.183h-22.316zM202 115c1.011 1.674 1.71 3.342 2 5M208 115c-.943 1.473-1.663 3.102-2 5" stroke="#FFF" stroke-width=".5" stroke-linecap="round" stroke-linejoin="round"/>
        <path d="M249 169.088s-12.812-15.625-17.052-23.161c-4.24-7.537-6.912-11.765-7.742-15.625-.83-3.86-3.41-7.813-6.82-9.835-3.411-2.022-7.973-2.62-10.739-2.436-2.765.184-8.94 1.747-10.415 2.482-1.475.735-1.52 1.976-.691 2.85.846.89 4.424.597 4.424.597s-2.212 1.838-2.12 4.871c0 0-2.488 1.563-1.014 4.963 0 0-2.396 1.839-.83 4.78 1.568 2.94 3.872 2.573 5.255 2.573 1.382 0 1.935-2.114 1.75-2.665l1.199-.092s.922 5.882 3.226 12.592c2.304 6.71 6.083 14.154 9.494 20.312 3.41 6.158 9.401 14.706 9.401 14.706s5.07-1.287 12.812-7.169c7.742-5.882 9.862-9.743 9.862-9.743" fill="#F7EAE1"/>
        <g transform="translate(0 63)">
            <mask id="o9fcxirxmf" fill="#fff">
                <use xlink:href="#rxmnqzbabe"/>
            </mask>
            <path d="M100.765 6.033S97.898.385 90.037.015C82.46-.342 73.759 5.848 64.14 13.069c-9.618 7.222-24.107 15-34.28 18.703C19.686 35.475.326 42.697.141 46.031c-.185 3.333 5.796 3.394 11.715 2.654 5.919-.741 19.36-5.802 19.36-5.802S13.275 54.178 8.096 57.882C2.916 61.585-.783 65.474.142 67.51c.925 2.037 6.844 2.037 12.948 0s15.537-7.407 15.537-7.407S14.94 71.214 11.61 74.547s-2.774 7.963 2.22 7.407c4.994-.555 17.202-8.518 26.265-15.925 0 0-10.358 9.444-10.358 13.518s5.27 2.233 10.913-.74c5.857-3.087 19.483-13.395 25.217-18.642 5.415-4.954 19.73-17.282 24.54-25.245l15.722-10.277s2.998-4.425 2.867-9.537c-.093-3.61-1.665-6.573-4.44-7.962-2.227-1.115-3.791-1.111-3.791-1.111" fill="#004F59" mask="url(#o9fcxirxmf)"/>
        </g>
        <path d="M188 148c0 3.314-5.373 6-12 6s-12-2.686-12-6h24z" fill="#F9CE5D"/>
        <path d="M164.842 141s-1.266 3.206-.693 7.183c.567 3.938 5.306 5.817 11.851 5.817 6.545 0 11.28-2.12 11.851-5.817.573-3.71-.693-7.183-.693-7.183h-22.316zM173 154c1.011 1.674 1.71 3.342 2 5M179 154c-.943 1.473-1.663 3.102-2 5" stroke="#FFF" stroke-width=".5" stroke-linecap="round" stroke-linejoin="round"/>
        <path d="M86.822 97.87c1.104 3.685 3.404 13.265 3.496 18.976.092 5.71-2.085 8.935-9.08 15.198-6.993 6.264-14.477 16.09-14.232 29.845.245 13.756 4.662 30.46 15.705 40.285 11.043 9.825 31.779 8.229 40.736 6.632 8.956-1.597 34.723-10.808 41.471-13.387 6.749-2.58 17.914-7.37 18.773-9.457.859-2.088.123-2.948-1.35-2.58-1.472.369-7.24 1.72-7.24 1.72s6.044-1.842 9.817-3.777c3.773-1.934 4.325-3.316 3.773-4.974-.552-1.658-4.233 0-7.27 1.198-3.037 1.197-5.89 1.381-5.89 1.381s3.497-1.565 7.822-4.697 6.166-5.435 5.522-7.462c-.644-2.026-2.853-1.473-5.153 0-2.301 1.474-5.369 3.777-7.577 4.33 0 0 4.662-2.318 4.662-6.571 0-4.299-2.024-5.895-3.251-6.018-1.227-.123-2.331.737-2.577 2.026-.245 1.29-.245 4.115-.245 4.115s-1.35 1.044-4.049 1.35c-2.7.308-4.172.124-4.172.124s2.945-2.334 4.05-2.948c1.104-.614 3.619-1.535 4.6-3.193.982-1.658.675-4.483-2.147-4.053-2.822.43-7.484 1.72-11.043 3.561-3.558 1.843-9.877 5.589-14.6 7.492-4.724 1.904-13.988 4.76-13.988 4.76l-5.797-20.542s3.496-8.29 3.588-9.12c.092-.828-4.049-3.96-4.049-3.96s15.828-40.714 18.589-57.663c2.76-16.95 2.577-41.267 3.497-44.584.92-3.316 5.521-12.343 6.994-14.922 1.472-2.58 2.944-4.483 1.165-6.018-1.779-1.535-4.049 2.763-5.521 4.36-1.472 1.597-3.006 4.114-3.804 3.746-.797-.369 1.105-4.544 2.761-7.922 1.656-3.377 3.006-5.895 1.227-7.124-1.78-1.228-3.988 2.641-5.399 4.729-1.41 2.088-3.926 7.062-4.417 6.755-.49-.307 1.84-6.632 2.822-9.15.982-2.518 2.945-5.957.92-7.185-2.024-1.228-4.6 4.115-5.705 6.325-1.104 2.211-4.11 8.413-4.11 8.413s.92-5.342 1.288-9.887c.368-4.544.307-5.22-1.166-5.895-1.472-.675-2.76 2.027-4.171 7.185-1.411 5.159-2.454 12.835-3.559 13.51-1.104.676-3.926-2.825-5.582-4.483-1.657-1.658-3.64-2.486-5.706-2.272-1.779.184-3.21 1.513-2.883 2.088 1.288 2.272 4.11 3.193 5.521 5.895 1.411 2.702 3.007 7.43 4.663 10.317 1.656 2.886 1.472 12.957 1.41 17.195-.06 4.237-1.318 24.87-1.318 24.87s-13.251 32.793-15.736 44.123c0 0-1.933-.184-3.773-9.672-1.84-9.488-3.22-15.567-3.22-15.567l-15.092 2.58z" fill="#FDEEA5"/>
        <path d="M128.129 151.228s3.991-7.393 3.618-9.229c-.165-.815-4.084-3.807-4.084-3.807L114.975 127s2.237 4.223 1.491 8.63c-.745 4.406-5.405 6.793-12.674 8.445C96.523 145.728 90 140.22 90 140.22s5.778 14.321 8.946 22.032c3.169 7.712 7.456 20.748 7.456 20.748 4.66-2.387 27.598-11.3 27.598-11.3l-5.871-20.472z" fill="#D95E17"/>
        <path d="M91 142c-2.191-5.028-7-13-7-13M116 128c-1.623-2.408-6.182-7.289-7-8" stroke="#FD3C0B" stroke-width=".5" stroke-linecap="round" stroke-linejoin="round"/>
        <path d="M90.305 115.806c-4.376 2.347-5.227 6.423-3.404 9.387 1.824 2.965 8.024 4.077 16.413.865 8.388-3.212 15.561-9.017 15.683-11.982.121-2.964-3.04-4.076-7.416-4.076-4.377 0-6.353.926-6.353.926" stroke="#F4C443" stroke-width=".877" stroke-linecap="round" stroke-linejoin="round"/>
        <path d="M84.831 85.916s1.815-4.582 4.175-6.078c2.359-1.496 9.89-.748 12.25.374 2.36 1.122 3.086 7.574 3.086 7.574s1.36-2.15 2.813-1.215c1.452.935.998 4.675-1.09 6.452-2.087 1.777-3.266 1.496-3.266 1.496s-1.634 6.64-7.895 7.387c-6.261.749-8.984-3.179-9.8-5.143-.817-1.963-.999-2.805-.999-2.805s-3.81-.842-4.083-4.302c-.272-3.46 2.087-4.114 2.904-4.301.816-.187 1.905.561 1.905.561" fill="#FDEEA5"/>
        <path d="M95.36 85c-1.819 1.183-2.31 1.479-2.36 1.86-.048.38 3 1.14 3 1.14" stroke="#004F59" stroke-width=".5" stroke-linecap="round" stroke-linejoin="round"/>
        <path d="M90 86c0 .663-.169 1-.5 1-.331 0-.5-.337-.5-1s.169-1 .5-1c.331 0 .5.337.5 1M100 86c0 .663-.169 1-.5 1-.331 0-.5-.337-.5-1s.169-1 .5-1c.331 0 .5.337.5 1" fill="#004F59"/>
        <path d="M90.126 90.064c.237-.27 2.593.412 4.353.31 1.76-.104 4.354-.344 4.514.137.16.481-2.273 3.953-5.314 3.437s-4.065-3.3-3.553-3.884z" stroke="#004F59" stroke-width=".658" stroke-linecap="round" stroke-linejoin="round"/>
        <path d="M88 83.05c1.035-.154 3.245-.11 4-.006M97 82.472c1.677-.894 4.065-.406 5 .528" stroke="#004F59" stroke-width=".5" stroke-linecap="round" stroke-linejoin="round"/>
        <path d="M220 65c2.029-2.888 4.738-1.007 6.767-3.895 2.029-2.887-.68-4.769 1.349-7.656 2.029-2.889 4.738-1.007 6.767-3.895 2.03-2.889-.68-4.77 1.35-7.658 2.029-2.889 4.738-1.008 6.767-3.896M102 34c1.882 3.025-.943 4.777.94 7.801 1.882 3.025 4.707 1.273 6.59 4.297 1.882 3.025-.943 4.777.939 7.802 1.883 3.025 4.708 1.273 6.591 4.298 1.883 3.025-.943 4.777.94 7.802" stroke="#D95E17" stroke-width=".877" stroke-linecap="round" stroke-linejoin="round"/>
        <path d="M234 100a3 3 0 1 1-6 0 3 3 0 0 1 6 0zM165 44.5a3.5 3.5 0 1 1-7 0 3.5 3.5 0 0 1 7 0z" stroke="#F9CC56" stroke-width=".877" stroke-linecap="round" stroke-linejoin="round"/>
        <path d="M205 165.5a3.5 3.5 0 1 1-7 0 3.5 3.5 0 0 1 7 0z" stroke="#FFF" stroke-width=".877" stroke-linecap="round" stroke-linejoin="round"/>
        <path d="M261 50.5a3.5 3.5 0 1 1-7 0 3.5 3.5 0 0 1 7 0zM222 34l-1 8" stroke="#B4D8E1" stroke-width=".877" stroke-linecap="round" stroke-linejoin="round"/>
        <path stroke="#D95E17" stroke-width=".877" stroke-linecap="round" stroke-linejoin="round" d="m197 187-1 7"/>
        <path stroke="#FFDB33" stroke-width=".877" stroke-linecap="round" stroke-linejoin="round" d="m211 185 4 5"/>
        <path stroke="#F9CC56" stroke-width=".877" stroke-linecap="round" stroke-linejoin="round" d="m307 132 7 5"/>
        <path stroke="#D95E17" stroke-width=".877" stroke-linecap="round" stroke-linejoin="round" d="m57 143-6 6"/>
        <path stroke="#FFF" stroke-width=".877" stroke-linecap="round" stroke-linejoin="round" d="m91 52 6 4"/>
    </g>
</svg>
