<svg width="139" height="152" viewBox="0 0 139 152" xmlns="http://www.w3.org/2000/svg">
    <g fill="none" fill-rule="evenodd">
        <path d="M33 72.988c-7.733 2.705-24.638 18.934-31.112 37.36-6.475 18.427 4.496 36.346 20.862 37.36 16.366 1.015 35.43-5.578 35.43-5.578l-3.058-42.432L33 72.988z" fill="#004F59"/>
        <path d="M106 77.212c7.733 2.705 24.638 18.934 31.112 37.36 6.475 18.427-4.496 36.347-20.862 37.36-16.366 1.015-58.07-9.802-58.07-9.802l-5.556-36.247 53.375-28.67z" fill="#004F59"/>
        <path d="M55.36 40.643c.225-.958.314-2.692.704-4.283.367-1.493.085-3.128-.395-3.804-.75-1.058-2.802-1.837-4.681-2.817-3.187-1.663-4.766-4.818-4.428-5.325.338-.508 4.005-.508 6.092 0 2.087.507 3.891 1.69 3.891 1.69s-4.625-5.297-4.173-5.804c.45-.507 3.102.507 4.963 1.803 1.861 1.296 2.877 2.423 2.877 2.423s-1.805-3.155-2.482-4.959c-.677-1.803.395-1.86 2.03-.732 1.636 1.127 6.148 5.297 7.784 8.79 1.636 3.494 1.805 9.467 1.185 11.609-.62 2.141-12.973 2.48-12.973 2.48l-.395-1.071z" fill="#00B091"/>
        <path d="M55.98 40.36s-2.144-2.366-4.23-1.07c-2.088 1.296-1.75 4.395-.34 5.748 1.41 1.352 3.385.901 3.385.901s.056 3.72-.733 6.988c-.79 3.268-3.666 13.721-3.666 13.721h13.706l1.974-14.792s1.438-.38 2.369-2.324c.93-1.944.987-3.31.987-3.31s2.06-.23 2.65-3.03c.621-2.944-1.692-3.212-2.749-3 0 0-.677-3.255-1.692-3.888 0 0-1.312.633-4.019.295s-3.638-1.14-4.61-.803c-.974.339-2.116 2.114-2.497 2.916-.38.804-.536 1.649-.536 1.649" fill="#F7EAE1"/>
        <path d="M60.775 41.256c-.095.405-.296.575-.596.504-.3-.07-.405-.312-.31-.717.096-.405.297-.575.597-.504.3.07.405.312.31.717M67.425 41.787c-.117.4-.327.558-.623.472-.296-.087-.387-.334-.27-.733.116-.399.327-.558.623-.471.295.086.387.333.27.732" fill="#000"/>
        <path d="M60.027 44.45c.187-.275 2.6.341 3.567.363.968.02 2.577-.216 2.556.267-.021.484-.904 2.131-2.993 2-2.545-.159-3.487-2.105-3.13-2.63" fill="#FFF"/>
        <path d="M58.18 38.135c1.127-.141 2.847-.085 3.778.084M65.06 38.389c1.1-.113 2.82-.17 3.441.056" stroke="#000" stroke-width=".658" stroke-linecap="round" stroke-linejoin="round"/>
        <path d="M54.795 45.94c.367 2.366 3.032 5.198 5.654 6.085" stroke="#FFF" stroke-width=".5" stroke-linecap="round" stroke-linejoin="round"/>
        <path d="m28.342 68.761 7.614-1.267s53.048-6.593 54.063-5.58c1.015 1.015 2.538 43.87 2.538 43.87s-61.677 8.621-62.438 8.114c-.762-.507-2.285-43.869-1.777-45.137" fill="#D95E17"/>
        <path d="m63.13 83.32 28.348-3.043-.13-2.542-28.453 3.053-1.524-16.323-2.528.29 1.522 16.305-25.644 2.751c-.094.01-.186.03-.274.06l-5.892 2.005.089 2.654 6.489-2.207L60.6 83.591c.931 10.017 1.965 21.197 2.41 26.253l2.524-.342c-.453-5.134-1.48-16.238-2.404-26.183" fill="#FFF"/>
        <path d="M34.349 67.916s1.777 39.558 2.623 45.052" stroke="#000" stroke-width=".5" stroke-linecap="round" stroke-linejoin="round"/>
        <path d="M58.292 82.032s-5.5-4.395-7.022-6.678c-1.523-2.282-.762-4.564 1.776-4.564 2.539 0 8.376 10.65 8.376 10.65s1.608-4.987 3.977-8.537c2.369-3.55 5.37-5.408 6.345-3.973 1.608 2.367-8.291 12.595-8.291 12.595" stroke="#FFF" stroke-width="1.315" stroke-linecap="round" stroke-linejoin="round"/>
        <path d="M12.944 110.517c1.354-3.296 6.345-11.41 8.883-15.045 2.538-3.635 7.361-8.115 10.999-9.975 3.638-1.86 6.951-2.398 8.46-2.62 2.68-.394 3.695 2.17 2.2 3.212-1.813 1.265-3.511 1.38-5.133 2.226-1.527.796-3.962 2.38-3.962 2.38s3.892-.971 5.88-1.478c1.988-.508 5.33-.972 5.669.972.338 1.944-3.258 2.535-5.034 3.212-1.777.676-3.384 1.521-4.696 2.155 0 0 4.738-1.183 6.472-1.48 1.735-.295 3.68.085 3.427 1.691-.254 1.606-3.004 2.325-4.526 2.959-1.523.634-3.977 1.521-4.061 1.817-.085.296 2.072.17 3.849-.296 1.777-.465 5.5-.887 5.795 1.184.296 2.07-1.1 2.578-2.368 3.085-1.27.507-3.089 1.099-5.077 2.578-1.988 1.48-6.43 5.832-7.868 7.903-1.438 2.07-4.484 8.622-4.484 8.622l-14.425-13.102zM106.348 77.637c-3.554-1.353-6.177-3.382-8.461-4.903-2.284-1.521-4.23-3.38-9.137-3.888-4.907-.507-8.46.253-10.745 1.606-2.284 1.352-3.046 2.198-2.284 3.803.761 1.607 3.891.423 5.33.254 1.438-.169 4.315-.254 4.315-.254s-4.488 1.364-7.023 2.536c-2.679 1.24-3.215 2.283-2.792 3.804.423 1.522 3.3.76 4.823.338 1.523-.423 5.33-1.268 5.33-1.268s-6.26 2.282-7.953 3.888c-1.692 1.606-.508 3.55 1.608 3.466 2.115-.085 5.922-1.86 5.922-1.86s-3.723 2.705-3.554 4.142c.17 1.437 3.977 1.69 5.67.76 1.691-.929 6.598 1.1 6.598 1.1l12.353-13.524z" fill="#F7EAE1"/>
        <path d="M85.366 74.256c2.03-.536 3.327-.648 3.327-.648M85.704 79.665c1.184-.422 2.2-.535 2.2-.535M85.28 85.16c1.721-1.015 3.977-1.128 4.372-1.128" stroke="#FE7754" stroke-width=".5" stroke-linecap="round" stroke-linejoin="round"/>
        <path d="M20.897 29.898c-1.016 4.057-4.57 7.607-4.57 7.607M37.564 50.757c1.777 2.029 3.046 4.311 3.3 7.861" stroke="#FE7A59" stroke-width="3.069" stroke-linejoin="round"/>
        <path d="M79.86 41.99c-.565 5.265 2.258 10.906 6.21 9.778 3.952-1.128 1.854-5.13 0-5.453-4.329-.752-6.587 3.76-9.034 7.521" stroke="#94C7D4" stroke-width="2.192" stroke-linejoin="round"/>
        <path d="M49.324 1c1.015 4.564 5.245 5.466 7.784 4.705 2.538-.76 4.653-4.17 8.46-3.155 3.807 1.014 3.3 5.804 7.107 6.057 3.807.254 4.315-2.282 8.122-1.775" stroke="#FE7A59" stroke-width="2.192" stroke-linejoin="round"/>
        <path d="M49.832 14.158a1.86 1.86 0 1 1-3.721-.002 1.86 1.86 0 0 1 3.72.002" fill="#F6B60D"/>
        <path d="M7.6 52.311a1.86 1.86 0 1 1-3.721-.002 1.86 1.86 0 0 1 3.72.002" fill="#FD3C0B"/>
    </g>
</svg>
