<svg width="80" height="80" viewBox="0 0 80 80" xmlns="http://www.w3.org/2000/svg">
    <g fill="none" fill-rule="evenodd">
        <circle fill="#D95E17" cx="40" cy="40" r="40"/>
        <path d="M43.587 53.944a3.003 3.003 0 0 0 2.357-3.532L45.8 49.7A14.9 14.9 0 0 0 44 45h9a3 3 0 0 0 .231-5.994 3 3 0 0 0-1.663-4.95A3 3 0 0 0 52 32.5a2.996 2.996 0 0 0-2.069-2.85A3 3 0 0 0 47 26h-4.594c-1.187 0-2.343.35-3.331 1.006l-2.406 1.607A6 6 0 0 0 34 33.605v6.95c0 1.825.831 3.544 2.25 4.688l.462.368a8.979 8.979 0 0 1 3.2 5.263l.144.712a3.003 3.003 0 0 0 3.532 2.357zM26 44h4c1.106 0 2-.894 2-2V28c0-1.106-.894-2-2-2h-4c-1.106 0-2 .894-2 2v14c0 1.106.894 2 2 2z" fill="#FFF" fill-rule="nonzero"/>
    </g>
</svg>
