<?xml version="1.0" encoding="UTF-8" standalone="no"?>
<!DOCTYPE svg PUBLIC "-//W3C//DTD SVG 1.1//EN" "http://www.w3.org/Graphics/SVG/1.1/DTD/svg11.dtd">
<svg width="100%" height="100%" viewBox="0 0 390 366" version="1.1" xmlns="http://www.w3.org/2000/svg" xmlns:xlink="http://www.w3.org/1999/xlink" xml:space="preserve" xmlns:serif="http://www.serif.com/" style="fill-rule:evenodd;clip-rule:evenodd;stroke-linejoin:round;stroke-miterlimit:2;">
    <g transform="matrix(1,0,0,1,-77,-17.0024)">
        <g transform="matrix(1,0,0,1,52,50.662)">
            <g id="ykqz8y95mb" transform="matrix(1,0,0,1,25,-33.6596)">
                <path d="M0,33.66L0.893,33.66C14.903,37.236 25.273,41.812 32.004,47.389C51.088,63.2 74.481,90.497 104.248,90.497C134.016,90.497 152.32,69.199 176.311,57.357C199.171,46.075 236.157,41.247 268.111,43.828C309.223,47.149 349.852,61.362 390,86.47L390,366.816L0,366.816L0,33.66Z"/>
            </g>
            <g id="ykqz8y95mb1" serif:id="ykqz8y95mb" transform="matrix(1,0,0,1,25,-33.6596)">
                <path d="M0,33.66L0.893,33.66C14.903,37.236 25.273,41.812 32.004,47.389C51.088,63.2 74.481,90.497 104.248,90.497C134.016,90.497 152.32,69.199 176.311,57.357C199.171,46.075 236.157,41.247 268.111,43.828C309.223,47.149 349.852,61.362 390,86.47L390,366.816L0,366.816L0,33.66Z" style="fill:rgb(0,176,145);"/>
            </g>
        </g>
    </g>
</svg>
